<?xml version="1.0" encoding="UTF-8" standalone="no"?><svg xmlns="http://www.w3.org/2000/svg" xmlns:xlink="http://www.w3.org/1999/xlink" contentScriptType="application/ecmascript" contentStyleType="text/css" height="836px" preserveAspectRatio="none" style="width:982px;height:836px;" version="1.1" viewBox="0 0 982 836" width="982px" zoomAndPan="magnify"><defs><filter height="300%" id="f1qgfhkuhkkxbe" width="300%" x="-1" y="-1"><feGaussianBlur result="blurOut" stdDeviation="2.0"/><feColorMatrix in="blurOut" result="blurOut2" type="matrix" values="0 0 0 0 0 0 0 0 0 0 0 0 0 0 0 0 0 0 .4 0"/><feOffset dx="4.0" dy="4.0" in="blurOut2" result="blurOut3"/><feBlend in="SourceGraphic" in2="blurOut3" mode="normal"/></filter></defs><g><!--cluster pyexcel--><polygon fill="#FFFFFF" filter="url(#f1qgfhkuhkkxbe)" points="88,190,147,190,154,212.4883,676,212.4883,676,365,88,365,88,190" style="stroke: #000000; stroke-width: 2.0;"/><line style="stroke: #000000; stroke-width: 2.0;" x1="88" x2="154" y1="212.4883" y2="212.4883"/><text fill="#000000" font-family="sans-serif" font-size="14" font-weight="bold" lengthAdjust="spacingAndGlyphs" textLength="53" x="92" y="205.5352">pyexcel</text><!--cluster plugins--><polygon fill="#FFFFFF" filter="url(#f1qgfhkuhkkxbe)" points="96,286,156,286,163,308.4883,668,308.4883,668,357,96,357,96,286" style="stroke: #000000; stroke-width: 2.0;"/><line style="stroke: #000000; stroke-width: 2.0;" x1="96" x2="163" y1="308.4883" y2="308.4883"/><text fill="#000000" font-family="sans-serif" font-size="14" font-weight="bold" lengthAdjust="spacingAndGlyphs" textLength="54" x="100" y="301.5352">plugins</text><!--cluster pyexcel-io--><polygon fill="#FFFFFF" filter="url(#f1qgfhkuhkkxbe)" points="14,382,96,382,103,404.4883,373,404.4883,373,670,14,670,14,382" style="stroke: #000000; stroke-width: 2.0;"/><line style="stroke: #000000; stroke-width: 2.0;" x1="14" x2="103" y1="404.4883" y2="404.4883"/><text fill="#000000" font-family="sans-serif" font-size="14" font-weight="bold" lengthAdjust="spacingAndGlyphs" textLength="76" x="18" y="397.5352">pyexcel-io</text><!--cluster io plugins--><polygon fill="#FFFFFF" filter="url(#f1qgfhkuhkkxbe)" points="22,591,101,591,108,613.4883,365,613.4883,365,662,22,662,22,591" style="stroke: #000000; stroke-width: 2.0;"/><line style="stroke: #000000; stroke-width: 2.0;" x1="22" x2="108" y1="613.4883" y2="613.4883"/><text fill="#000000" font-family="sans-serif" font-size="14" font-weight="bold" lengthAdjust="spacingAndGlyphs" textLength="73" x="26" y="606.5352">io plugins</text><!--cluster ods--><path d="M387,598 C387,595 389,593 392,593 C395,593 397,595 397,598 C397,595 399,593 402,593 C405,593 407,595 407,598 C407,595 409,593 412,593 C415,593 417,595 417,598 C417,595 419,593 422,593 C425,593 427,595 427,598 C427,595 429,593 432,593 C435,593 437,595 437,598 C437,595 439,593 442,593 C445,593 447,595 447,598 C447,595 449,593 452,593 C455,593 457,595 457,598 C457,595 459,593 462,593 C465,593 467,595 467,598 C467,595 469,593 472,593 C475,593 477,595 477,598 C477,595 479,593 482,593 C485,593 487,595 487,598 C487,595 489,593 492,593 C495,593 497,595 497,598 C497,595 499,593 502,593 C505,593 507,595 507,598 C507,595 509,593 512,593 C515,593 517,595 517,598 C517,595 519,593 522,593 C525,593 527,595 527,598 C527,595 529,593 532,593 C535,593 537,595 537,598 C537,595 539,593 542,593 C545,593 547,595 547,598 C547,595 549,593 552,593 C555,593 557,595 557,598 C557,595 559,593 562,593 C565,593 567,595 567,598 C567,595 569,593 572,593 C575,593 577,595 577,598 C577,595 579,593 582,593 C585,593 587,595 587,598 C587,595 589,593 592,593 C595,593 597,595 597,598 C597,595 599,593 602,593 C605,593 607,595 607,598 C607,595 609,593 612,593 C615,593 617,595 617,598 C617,595 619,593 622,593 C625,593 627,595 627,598 C627,595 629,593 632,593 C635,593 637,595 637,598 C637,595 639,593 642,593 C645,593 647,595 647,598 C647,595 649,593 652,593 C655,593 657,595 657,598 C657,595 659,593 662,593 C665,593 667,595 667,598 C667,595 669,593 672,593 C675,593 677,595 677,598 C677,595 679,593 682,593 C685,593 687,595 687,598 C687,595 689,593 692,593 C695,593 697,595 697,598 C697,595 699,593 702,593 C705,593 707,595 707,598 C707,595 709,593 712,593 C715,593 717,595 717,598 C717,595 719,593 722,593 C725,593 727,595 727,598 C727,595 729,593 732,593 C735,593 737,595 737,598 C737,595 739,593 742,593 C745,593 747,595 747,598 C747,595 749,593 752,593 C755,593 757,595 757,598 C757,595 759,593 762,593 C765,593 767,595 767,598 C767,595 769,593 772,593 C775,593 777,595 777,598 C777,595 779,593 782,593 C785,593 787,595 787,598 C787,595 789,593 792,593 C795,593 797,595 797,598 C800,598 802,600 802,603 C802,606 800,608 797,608 C800,608 802,610 802,613 C802,616 800,618 797,618 C800,618 802,620 802,623 C802,626 800,628 797,628 C800,628 802,630 802,633 C802,636 800,638 797,638 C800,638 802,640 802,643 C802,646 800,648 797,648 C800,648 802,650 802,653 C802,656 800,658 797,658 C797,661 794,663 792,663 C789,663 787,661 787,658 C787,661 784,663 782,663 C779,663 777,661 777,658 C777,661 774,663 772,663 C769,663 767,661 767,658 C767,661 764,663 762,663 C759,663 757,661 757,658 C757,661 754,663 752,663 C749,663 747,661 747,658 C747,661 744,663 742,663 C739,663 737,661 737,658 C737,661 734,663 732,663 C729,663 727,661 727,658 C727,661 724,663 722,663 C719,663 717,661 717,658 C717,661 714,663 712,663 C709,663 707,661 707,658 C707,661 704,663 702,663 C699,663 697,661 697,658 C697,661 694,663 692,663 C689,663 687,661 687,658 C687,661 684,663 682,663 C679,663 677,661 677,658 C677,661 674,663 672,663 C669,663 667,661 667,658 C667,661 664,663 662,663 C659,663 657,661 657,658 C657,661 654,663 652,663 C649,663 647,661 647,658 C647,661 644,663 642,663 C639,663 637,661 637,658 C637,661 634,663 632,663 C629,663 627,661 627,658 C627,661 624,663 622,663 C619,663 617,661 617,658 C617,661 614,663 612,663 C609,663 607,661 607,658 C607,661 604,663 602,663 C599,663 597,661 597,658 C597,661 594,663 592,663 C589,663 587,661 587,658 C587,661 584,663 582,663 C579,663 577,661 577,658 C577,661 574,663 572,663 C569,663 567,661 567,658 C567,661 564,663 562,663 C559,663 557,661 557,658 C557,661 554,663 552,663 C549,663 547,661 547,658 C547,661 544,663 542,663 C539,663 537,661 537,658 C537,661 534,663 532,663 C529,663 527,661 527,658 C527,661 524,663 522,663 C519,663 517,661 517,658 C517,661 514,663 512,663 C509,663 507,661 507,658 C507,661 504,663 502,663 C499,663 497,661 497,658 C497,661 494,663 492,663 C489,663 487,661 487,658 C487,661 484,663 482,663 C479,663 477,661 477,658 C477,661 474,663 472,663 C469,663 467,661 467,658 C467,661 464,663 462,663 C459,663 457,661 457,658 C457,661 454,663 452,663 C449,663 447,661 447,658 C447,661 444,663 442,663 C439,663 437,661 437,658 C437,661 434,663 432,663 C429,663 427,661 427,658 C427,661 424,663 422,663 C419,663 417,661 417,658 C417,661 414,663 412,663 C409,663 407,661 407,658 C407,661 404,663 402,663 C399,663 397,661 397,658 C397,661 394,663 392,663 C389,663 387,661 387,658 C384,658 382,656 382,653 C382,650 384,648 387,648 C384,648 382,646 382,643 C382,640 384,638 387,638 C384,638 382,636 382,633 C382,630 384,628 387,628 C384,628 382,626 382,623 C382,620 384,618 387,618 C384,618 382,616 382,613 C382,610 384,608 387,608 C384,608 382,606 382,603 C382,600 384,598 387,598 " fill="#FFFFFF" filter="url(#f1qgfhkuhkkxbe)" style="stroke: #000000; stroke-width: 2.0;"/><text fill="#000000" font-family="sans-serif" font-size="14" font-weight="bold" lengthAdjust="spacingAndGlyphs" textLength="26" x="580" y="617.5352">ods</text><!--cluster xls, xlsx--><path d="M394,389 C394,386 396,384 399,384 C402,384 404,386 404,389 C404,386 406,384 409,384 C412,384 414,386 414,389 C414,386 416,384 419,384 C422,384 424,386 424,389 C424,386 426,384 429,384 C432,384 434,386 434,389 C434,386 436,384 439,384 C442,384 444,386 444,389 C444,386 446,384 449,384 C452,384 454,386 454,389 C454,386 456,384 459,384 C462,384 464,386 464,389 C464,386 466,384 469,384 C472,384 474,386 474,389 C474,386 476,384 479,384 C482,384 484,386 484,389 C484,386 486,384 489,384 C492,384 494,386 494,389 C494,386 496,384 499,384 C502,384 504,386 504,389 C504,386 506,384 509,384 C512,384 514,386 514,389 C514,386 516,384 519,384 C522,384 524,386 524,389 C524,386 526,384 529,384 C532,384 534,386 534,389 C534,386 536,384 539,384 C542,384 544,386 544,389 C544,386 546,384 549,384 C552,384 554,386 554,389 C554,386 556,384 559,384 C562,384 564,386 564,389 C564,386 566,384 569,384 C572,384 574,386 574,389 C574,386 576,384 579,384 C582,384 584,386 584,389 C584,386 586,384 589,384 C592,384 594,386 594,389 C594,386 596,384 599,384 C602,384 604,386 604,389 C604,386 606,384 609,384 C612,384 614,386 614,389 C614,386 616,384 619,384 C622,384 624,386 624,389 C624,386 626,384 629,384 C632,384 634,386 634,389 C634,386 636,384 639,384 C642,384 644,386 644,389 C644,386 646,384 649,384 C652,384 654,386 654,389 C654,386 656,384 659,384 C662,384 664,386 664,389 C664,386 666,384 669,384 C672,384 674,386 674,389 C674,386 676,384 679,384 C682,384 684,386 684,389 C684,386 686,384 689,384 C692,384 694,386 694,389 C694,386 696,384 699,384 C702,384 704,386 704,389 C704,386 706,384 709,384 C712,384 714,386 714,389 C714,386 716,384 719,384 C722,384 724,386 724,389 C724,386 726,384 729,384 C732,384 734,386 734,389 C734,386 736,384 739,384 C742,384 744,386 744,389 C744,386 746,384 749,384 C752,384 754,386 754,389 C754,386 756,384 759,384 C762,384 764,386 764,389 C764,386 766,384 769,384 C772,384 774,386 774,389 C774,386 776,384 779,384 C782,384 784,386 784,389 C784,386 786,384 789,384 C792,384 794,386 794,389 C794,386 796,384 799,384 C802,384 804,386 804,389 C807,389 809,391 809,394 C809,397 807,399 804,399 C807,399 809,401 809,404 C809,407 807,409 804,409 C807,409 809,411 809,414 C809,417 807,419 804,419 C807,419 809,421 809,424 C809,427 807,429 804,429 C807,429 809,431 809,434 C809,437 807,439 804,439 C807,439 809,441 809,444 C809,447 807,449 804,449 C804,452 801,454 799,454 C796,454 794,452 794,449 C794,452 791,454 789,454 C786,454 784,452 784,449 C784,452 781,454 779,454 C776,454 774,452 774,449 C774,452 771,454 769,454 C766,454 764,452 764,449 C764,452 761,454 759,454 C756,454 754,452 754,449 C754,452 751,454 749,454 C746,454 744,452 744,449 C744,452 741,454 739,454 C736,454 734,452 734,449 C734,452 731,454 729,454 C726,454 724,452 724,449 C724,452 721,454 719,454 C716,454 714,452 714,449 C714,452 711,454 709,454 C706,454 704,452 704,449 C704,452 701,454 699,454 C696,454 694,452 694,449 C694,452 691,454 689,454 C686,454 684,452 684,449 C684,452 681,454 679,454 C676,454 674,452 674,449 C674,452 671,454 669,454 C666,454 664,452 664,449 C664,452 661,454 659,454 C656,454 654,452 654,449 C654,452 651,454 649,454 C646,454 644,452 644,449 C644,452 641,454 639,454 C636,454 634,452 634,449 C634,452 631,454 629,454 C626,454 624,452 624,449 C624,452 621,454 619,454 C616,454 614,452 614,449 C614,452 611,454 609,454 C606,454 604,452 604,449 C604,452 601,454 599,454 C596,454 594,452 594,449 C594,452 591,454 589,454 C586,454 584,452 584,449 C584,452 581,454 579,454 C576,454 574,452 574,449 C574,452 571,454 569,454 C566,454 564,452 564,449 C564,452 561,454 559,454 C556,454 554,452 554,449 C554,452 551,454 549,454 C546,454 544,452 544,449 C544,452 541,454 539,454 C536,454 534,452 534,449 C534,452 531,454 529,454 C526,454 524,452 524,449 C524,452 521,454 519,454 C516,454 514,452 514,449 C514,452 511,454 509,454 C506,454 504,452 504,449 C504,452 501,454 499,454 C496,454 494,452 494,449 C494,452 491,454 489,454 C486,454 484,452 484,449 C484,452 481,454 479,454 C476,454 474,452 474,449 C474,452 471,454 469,454 C466,454 464,452 464,449 C464,452 461,454 459,454 C456,454 454,452 454,449 C454,452 451,454 449,454 C446,454 444,452 444,449 C444,452 441,454 439,454 C436,454 434,452 434,449 C434,452 431,454 429,454 C426,454 424,452 424,449 C424,452 421,454 419,454 C416,454 414,452 414,449 C414,452 411,454 409,454 C406,454 404,452 404,449 C404,452 401,454 399,454 C396,454 394,452 394,449 C391,449 389,447 389,444 C389,441 391,439 394,439 C391,439 389,437 389,434 C389,431 391,429 394,429 C391,429 389,427 389,424 C389,421 391,419 394,419 C391,419 389,417 389,414 C389,411 391,409 394,409 C391,409 389,407 389,404 C389,401 391,399 394,399 C391,399 389,397 389,394 C389,391 391,389 394,389 " fill="#FFFFFF" filter="url(#f1qgfhkuhkkxbe)" style="stroke: #000000; stroke-width: 2.0;"/><text fill="#000000" font-family="sans-serif" font-size="14" font-weight="bold" lengthAdjust="spacingAndGlyphs" textLength="58" x="570" y="408.5352">xls, xlsx</text><!--entity pyexcel public api--><rect fill="#FEFECE" filter="url(#f1qgfhkuhkkxbe)" height="36.4883" style="stroke: #A80036; stroke-width: 1.5;" width="143" x="96.5" y="217"/><rect fill="#FEFECE" height="5" style="stroke: #A80036; stroke-width: 1.5;" width="10" x="91.5" y="222"/><rect fill="#FEFECE" height="5" style="stroke: #A80036; stroke-width: 1.5;" width="10" x="91.5" y="243.4883"/><text fill="#000000" font-family="sans-serif" font-size="14" lengthAdjust="spacingAndGlyphs" textLength="123" x="106.5" y="240.5352">pyexcel public api</text><!--entity pyexcel internal api--><rect fill="#FEFECE" filter="url(#f1qgfhkuhkkxbe)" height="36.4883" style="stroke: #A80036; stroke-width: 1.5;" width="154" x="275" y="217"/><rect fill="#FEFECE" height="5" style="stroke: #A80036; stroke-width: 1.5;" width="10" x="270" y="222"/><rect fill="#FEFECE" height="5" style="stroke: #A80036; stroke-width: 1.5;" width="10" x="270" y="243.4883"/><text fill="#000000" font-family="sans-serif" font-size="14" lengthAdjust="spacingAndGlyphs" textLength="134" x="285" y="240.5352">pyexcel internal api</text><!--entity pyexcel plugin interfaces--><rect fill="#FEFECE" filter="url(#f1qgfhkuhkkxbe)" height="36.4883" style="stroke: #A80036; stroke-width: 1.5;" width="191" x="464.5" y="217"/><rect fill="#FEFECE" height="5" style="stroke: #A80036; stroke-width: 1.5;" width="10" x="459.5" y="222"/><rect fill="#FEFECE" height="5" style="stroke: #A80036; stroke-width: 1.5;" width="10" x="459.5" y="243.4883"/><text fill="#000000" font-family="sans-serif" font-size="14" lengthAdjust="spacingAndGlyphs" textLength="171" x="474.5" y="240.5352">pyexcel plugin interfaces</text><!--entity data source plugins--><rect fill="#FEFECE" filter="url(#f1qgfhkuhkkxbe)" height="36.4883" style="stroke: #A80036; stroke-width: 1.5;" width="155" x="504.5" y="313"/><rect fill="#FEFECE" height="5" style="stroke: #A80036; stroke-width: 1.5;" width="10" x="499.5" y="318"/><rect fill="#FEFECE" height="5" style="stroke: #A80036; stroke-width: 1.5;" width="10" x="499.5" y="339.4883"/><text fill="#000000" font-family="sans-serif" font-size="14" lengthAdjust="spacingAndGlyphs" textLength="135" x="514.5" y="336.5352">data source plugins</text><!--entity data renderer plugins--><rect fill="#FEFECE" filter="url(#f1qgfhkuhkkxbe)" height="36.4883" style="stroke: #A80036; stroke-width: 1.5;" width="169" x="300.5" y="313"/><rect fill="#FEFECE" height="5" style="stroke: #A80036; stroke-width: 1.5;" width="10" x="295.5" y="318"/><rect fill="#FEFECE" height="5" style="stroke: #A80036; stroke-width: 1.5;" width="10" x="295.5" y="339.4883"/><text fill="#000000" font-family="sans-serif" font-size="14" lengthAdjust="spacingAndGlyphs" textLength="149" x="310.5" y="336.5352">data renderer plugins</text><!--entity data parsing plugins--><rect fill="#FEFECE" filter="url(#f1qgfhkuhkkxbe)" height="36.4883" style="stroke: #A80036; stroke-width: 1.5;" width="161" x="104.5" y="313"/><rect fill="#FEFECE" height="5" style="stroke: #A80036; stroke-width: 1.5;" width="10" x="99.5" y="318"/><rect fill="#FEFECE" height="5" style="stroke: #A80036; stroke-width: 1.5;" width="10" x="99.5" y="339.4883"/><text fill="#000000" font-family="sans-serif" font-size="14" lengthAdjust="spacingAndGlyphs" textLength="141" x="114.5" y="336.5352">data parsing plugins</text><!--entity pyexcel-io public api--><rect fill="#FEFECE" filter="url(#f1qgfhkuhkkxbe)" height="36.4883" style="stroke: #A80036; stroke-width: 1.5;" width="164" x="177" y="409"/><rect fill="#FEFECE" height="5" style="stroke: #A80036; stroke-width: 1.5;" width="10" x="172" y="414"/><rect fill="#FEFECE" height="5" style="stroke: #A80036; stroke-width: 1.5;" width="10" x="172" y="435.4883"/><text fill="#000000" font-family="sans-serif" font-size="14" lengthAdjust="spacingAndGlyphs" textLength="144" x="187" y="432.5352">pyexcel-io public api</text><!--entity pyexcel-io plugin interfaces--><rect fill="#FEFECE" filter="url(#f1qgfhkuhkkxbe)" height="36.4883" style="stroke: #A80036; stroke-width: 1.5;" width="212" x="153" y="513.5"/><rect fill="#FEFECE" height="5" style="stroke: #A80036; stroke-width: 1.5;" width="10" x="148" y="518.5"/><rect fill="#FEFECE" height="5" style="stroke: #A80036; stroke-width: 1.5;" width="10" x="148" y="539.9883"/><text fill="#000000" font-family="sans-serif" font-size="14" lengthAdjust="spacingAndGlyphs" textLength="192" x="163" y="537.0352">pyexcel-io plugin interfaces</text><!--entity csv, csvz, tsv, tsvz--><rect fill="#FEFECE" filter="url(#f1qgfhkuhkkxbe)" height="36.4883" style="stroke: #A80036; stroke-width: 1.5;" width="140" x="217" y="618"/><rect fill="#FEFECE" height="5" style="stroke: #A80036; stroke-width: 1.5;" width="10" x="212" y="623"/><rect fill="#FEFECE" height="5" style="stroke: #A80036; stroke-width: 1.5;" width="10" x="212" y="644.4883"/><text fill="#000000" font-family="sans-serif" font-size="14" lengthAdjust="spacingAndGlyphs" textLength="120" x="227" y="641.5352">csv, csvz, tsv, tsvz</text><!--entity django, sqlalchemy--><rect fill="#FEFECE" filter="url(#f1qgfhkuhkkxbe)" height="36.4883" style="stroke: #A80036; stroke-width: 1.5;" width="152" x="30" y="618"/><rect fill="#FEFECE" height="5" style="stroke: #A80036; stroke-width: 1.5;" width="10" x="25" y="623"/><rect fill="#FEFECE" height="5" style="stroke: #A80036; stroke-width: 1.5;" width="10" x="25" y="644.4883"/><text fill="#000000" font-family="sans-serif" font-size="14" lengthAdjust="spacingAndGlyphs" textLength="132" x="40" y="641.5352">django, sqlalchemy</text><!--entity pyexcel-ods--><rect fill="#FEFECE" filter="url(#f1qgfhkuhkkxbe)" height="36.4883" style="stroke: #A80036; stroke-width: 1.5;" width="105" x="392.5" y="618"/><rect fill="#FEFECE" height="5" style="stroke: #A80036; stroke-width: 1.5;" width="10" x="387.5" y="623"/><rect fill="#FEFECE" height="5" style="stroke: #A80036; stroke-width: 1.5;" width="10" x="387.5" y="644.4883"/><text fill="#000000" font-family="sans-serif" font-size="14" lengthAdjust="spacingAndGlyphs" textLength="85" x="402.5" y="641.5352">pyexcel-ods</text><!--entity pyexcel-ods3--><rect fill="#FEFECE" filter="url(#f1qgfhkuhkkxbe)" height="36.4883" style="stroke: #A80036; stroke-width: 1.5;" width="114" x="533" y="618"/><rect fill="#FEFECE" height="5" style="stroke: #A80036; stroke-width: 1.5;" width="10" x="528" y="623"/><rect fill="#FEFECE" height="5" style="stroke: #A80036; stroke-width: 1.5;" width="10" x="528" y="644.4883"/><text fill="#000000" font-family="sans-serif" font-size="14" lengthAdjust="spacingAndGlyphs" textLength="94" x="543" y="641.5352">pyexcel-ods3</text><!--entity pyexcel-odsr--><rect fill="#FEFECE" filter="url(#f1qgfhkuhkkxbe)" height="36.4883" style="stroke: #A80036; stroke-width: 1.5;" width="111" x="682.5" y="618"/><rect fill="#FEFECE" height="5" style="stroke: #A80036; stroke-width: 1.5;" width="10" x="677.5" y="623"/><rect fill="#FEFECE" height="5" style="stroke: #A80036; stroke-width: 1.5;" width="10" x="677.5" y="644.4883"/><text fill="#000000" font-family="sans-serif" font-size="14" lengthAdjust="spacingAndGlyphs" textLength="91" x="692.5" y="641.5352">pyexcel-odsr</text><!--entity pyexcel-xls--><rect fill="#FEFECE" filter="url(#f1qgfhkuhkkxbe)" height="36.4883" style="stroke: #A80036; stroke-width: 1.5;" width="100" x="554" y="409"/><rect fill="#FEFECE" height="5" style="stroke: #A80036; stroke-width: 1.5;" width="10" x="549" y="414"/><rect fill="#FEFECE" height="5" style="stroke: #A80036; stroke-width: 1.5;" width="10" x="549" y="435.4883"/><text fill="#000000" font-family="sans-serif" font-size="14" lengthAdjust="spacingAndGlyphs" textLength="80" x="564" y="432.5352">pyexcel-xls</text><!--entity pyexcel-xlsx--><rect fill="#FEFECE" filter="url(#f1qgfhkuhkkxbe)" height="36.4883" style="stroke: #A80036; stroke-width: 1.5;" width="109" x="689.5" y="409"/><rect fill="#FEFECE" height="5" style="stroke: #A80036; stroke-width: 1.5;" width="10" x="684.5" y="414"/><rect fill="#FEFECE" height="5" style="stroke: #A80036; stroke-width: 1.5;" width="10" x="684.5" y="435.4883"/><text fill="#000000" font-family="sans-serif" font-size="14" lengthAdjust="spacingAndGlyphs" textLength="89" x="699.5" y="432.5352">pyexcel-xlsx</text><!--entity pyexcel-xlsxw--><rect fill="#FEFECE" filter="url(#f1qgfhkuhkkxbe)" height="36.4883" style="stroke: #A80036; stroke-width: 1.5;" width="120" x="399" y="409"/><rect fill="#FEFECE" height="5" style="stroke: #A80036; stroke-width: 1.5;" width="10" x="394" y="414"/><rect fill="#FEFECE" height="5" style="stroke: #A80036; stroke-width: 1.5;" width="10" x="394" y="435.4883"/><text fill="#000000" font-family="sans-serif" font-size="14" lengthAdjust="spacingAndGlyphs" textLength="100" x="409" y="432.5352">pyexcel-xlsxw</text><!--entity tabulate--><rect fill="#FFFFFF" filter="url(#f1qgfhkuhkkxbe)" height="52.9766" style="stroke: #A80036; stroke-width: 1.5;" width="117" x="651.5" y="8"/><rect fill="#FFFFFF" height="5" style="stroke: #A80036; stroke-width: 1.5;" width="10" x="646.5" y="13"/><rect fill="#FFFFFF" height="5" style="stroke: #A80036; stroke-width: 1.5;" width="10" x="646.5" y="50.9766"/><text fill="#000000" font-family="sans-serif" font-size="14" font-style="italic" lengthAdjust="spacingAndGlyphs" textLength="97" x="661.5" y="31.5352">«dependency»</text><text fill="#000000" font-family="sans-serif" font-size="14" lengthAdjust="spacingAndGlyphs" textLength="56" x="682" y="48.0234">tabulate</text><!--entity pygal--><rect fill="#FFFFFF" filter="url(#f1qgfhkuhkkxbe)" height="52.9766" style="stroke: #A80036; stroke-width: 1.5;" width="117" x="499.5" y="8"/><rect fill="#FFFFFF" height="5" style="stroke: #A80036; stroke-width: 1.5;" width="10" x="494.5" y="13"/><rect fill="#FFFFFF" height="5" style="stroke: #A80036; stroke-width: 1.5;" width="10" x="494.5" y="50.9766"/><text fill="#000000" font-family="sans-serif" font-size="14" font-style="italic" lengthAdjust="spacingAndGlyphs" textLength="97" x="509.5" y="31.5352">«dependency»</text><text fill="#000000" font-family="sans-serif" font-size="14" lengthAdjust="spacingAndGlyphs" textLength="37" x="539.5" y="48.0234">pygal</text><!--entity handsontable--><rect fill="#FFFFFF" filter="url(#f1qgfhkuhkkxbe)" height="52.9766" style="stroke: #A80036; stroke-width: 1.5;" width="117" x="320.5" y="8"/><rect fill="#FFFFFF" height="5" style="stroke: #A80036; stroke-width: 1.5;" width="10" x="315.5" y="13"/><rect fill="#FFFFFF" height="5" style="stroke: #A80036; stroke-width: 1.5;" width="10" x="315.5" y="50.9766"/><text fill="#000000" font-family="sans-serif" font-size="14" font-style="italic" lengthAdjust="spacingAndGlyphs" textLength="97" x="330.5" y="31.5352">«dependency»</text><text fill="#000000" font-family="sans-serif" font-size="14" lengthAdjust="spacingAndGlyphs" textLength="94" x="332" y="48.0234">handsontable</text><!--entity xlrd--><rect fill="#FFFFFF" filter="url(#f1qgfhkuhkkxbe)" height="52.9766" style="stroke: #A80036; stroke-width: 1.5;" width="117" x="552.5" y="505"/><rect fill="#FFFFFF" height="5" style="stroke: #A80036; stroke-width: 1.5;" width="10" x="547.5" y="510"/><rect fill="#FFFFFF" height="5" style="stroke: #A80036; stroke-width: 1.5;" width="10" x="547.5" y="547.9766"/><text fill="#000000" font-family="sans-serif" font-size="14" font-style="italic" lengthAdjust="spacingAndGlyphs" textLength="97" x="562.5" y="528.5352">«dependency»</text><text fill="#000000" font-family="sans-serif" font-size="14" lengthAdjust="spacingAndGlyphs" textLength="28" x="597" y="545.0234">xlrd</text><!--entity xlwt--><rect fill="#FFFFFF" filter="url(#f1qgfhkuhkkxbe)" height="52.9766" style="stroke: #A80036; stroke-width: 1.5;" width="117" x="704.5" y="505"/><rect fill="#FFFFFF" height="5" style="stroke: #A80036; stroke-width: 1.5;" width="10" x="699.5" y="510"/><rect fill="#FFFFFF" height="5" style="stroke: #A80036; stroke-width: 1.5;" width="10" x="699.5" y="547.9766"/><text fill="#000000" font-family="sans-serif" font-size="14" font-style="italic" lengthAdjust="spacingAndGlyphs" textLength="97" x="714.5" y="528.5352">«dependency»</text><text fill="#000000" font-family="sans-serif" font-size="14" lengthAdjust="spacingAndGlyphs" textLength="29" x="748.5" y="545.0234">xlwt</text><!--entity openpyxl--><rect fill="#FFFFFF" filter="url(#f1qgfhkuhkkxbe)" height="52.9766" style="stroke: #A80036; stroke-width: 1.5;" width="117" x="856.5" y="505"/><rect fill="#FFFFFF" height="5" style="stroke: #A80036; stroke-width: 1.5;" width="10" x="851.5" y="510"/><rect fill="#FFFFFF" height="5" style="stroke: #A80036; stroke-width: 1.5;" width="10" x="851.5" y="547.9766"/><text fill="#000000" font-family="sans-serif" font-size="14" font-style="italic" lengthAdjust="spacingAndGlyphs" textLength="97" x="866.5" y="528.5352">«dependency»</text><text fill="#000000" font-family="sans-serif" font-size="14" lengthAdjust="spacingAndGlyphs" textLength="64" x="883" y="545.0234">openpyxl</text><!--entity xlsxwriter--><rect fill="#FFFFFF" filter="url(#f1qgfhkuhkkxbe)" height="52.9766" style="stroke: #A80036; stroke-width: 1.5;" width="117" x="400.5" y="505"/><rect fill="#FFFFFF" height="5" style="stroke: #A80036; stroke-width: 1.5;" width="10" x="395.5" y="510"/><rect fill="#FFFFFF" height="5" style="stroke: #A80036; stroke-width: 1.5;" width="10" x="395.5" y="547.9766"/><text fill="#000000" font-family="sans-serif" font-size="14" font-style="italic" lengthAdjust="spacingAndGlyphs" textLength="97" x="410.5" y="528.5352">«dependency»</text><text fill="#000000" font-family="sans-serif" font-size="14" lengthAdjust="spacingAndGlyphs" textLength="69" x="424.5" y="545.0234">xlsxwriter</text><!--entity ezodf--><rect fill="#FFFFFF" filter="url(#f1qgfhkuhkkxbe)" height="52.9766" style="stroke: #A80036; stroke-width: 1.5;" width="117" x="535.5" y="775"/><rect fill="#FFFFFF" height="5" style="stroke: #A80036; stroke-width: 1.5;" width="10" x="530.5" y="780"/><rect fill="#FFFFFF" height="5" style="stroke: #A80036; stroke-width: 1.5;" width="10" x="530.5" y="817.9766"/><text fill="#000000" font-family="sans-serif" font-size="14" font-style="italic" lengthAdjust="spacingAndGlyphs" textLength="97" x="545.5" y="798.5352">«dependency»</text><text fill="#000000" font-family="sans-serif" font-size="14" lengthAdjust="spacingAndGlyphs" textLength="39" x="574.5" y="815.0234">ezodf</text><!--entity odfpy--><rect fill="#FFFFFF" filter="url(#f1qgfhkuhkkxbe)" height="52.9766" style="stroke: #A80036; stroke-width: 1.5;" width="117" x="383.5" y="775"/><rect fill="#FFFFFF" height="5" style="stroke: #A80036; stroke-width: 1.5;" width="10" x="378.5" y="780"/><rect fill="#FFFFFF" height="5" style="stroke: #A80036; stroke-width: 1.5;" width="10" x="378.5" y="817.9766"/><text fill="#000000" font-family="sans-serif" font-size="14" font-style="italic" lengthAdjust="spacingAndGlyphs" textLength="97" x="393.5" y="798.5352">«dependency»</text><text fill="#000000" font-family="sans-serif" font-size="14" lengthAdjust="spacingAndGlyphs" textLength="39" x="422.5" y="815.0234">odfpy</text><!--entity pyexcel-text--><rect fill="#FEFECE" filter="url(#f1qgfhkuhkkxbe)" height="36.4883" style="stroke: #A80036; stroke-width: 1.5;" width="107" x="655.5" y="121"/><rect fill="#FEFECE" height="5" style="stroke: #A80036; stroke-width: 1.5;" width="10" x="650.5" y="126"/><rect fill="#FEFECE" height="5" style="stroke: #A80036; stroke-width: 1.5;" width="10" x="650.5" y="147.4883"/><text fill="#000000" font-family="sans-serif" font-size="14" lengthAdjust="spacingAndGlyphs" textLength="87" x="665.5" y="144.5352">pyexcel-text</text><!--entity pyexcel-pygal--><rect fill="#FEFECE" filter="url(#f1qgfhkuhkkxbe)" height="36.4883" style="stroke: #A80036; stroke-width: 1.5;" width="117" x="501.5" y="121"/><rect fill="#FEFECE" height="5" style="stroke: #A80036; stroke-width: 1.5;" width="10" x="496.5" y="126"/><rect fill="#FEFECE" height="5" style="stroke: #A80036; stroke-width: 1.5;" width="10" x="496.5" y="147.4883"/><text fill="#000000" font-family="sans-serif" font-size="14" lengthAdjust="spacingAndGlyphs" textLength="97" x="511.5" y="144.5352">pyexcel-pygal</text><!--entity pyexcel-handsontable--><rect fill="#FEFECE" filter="url(#f1qgfhkuhkkxbe)" height="36.4883" style="stroke: #A80036; stroke-width: 1.5;" width="174" x="292" y="121"/><rect fill="#FEFECE" height="5" style="stroke: #A80036; stroke-width: 1.5;" width="10" x="287" y="126"/><rect fill="#FEFECE" height="5" style="stroke: #A80036; stroke-width: 1.5;" width="10" x="287" y="147.4883"/><text fill="#000000" font-family="sans-serif" font-size="14" lengthAdjust="spacingAndGlyphs" textLength="154" x="302" y="144.5352">pyexcel-handsontable</text><!--link pyexcel public api to pyexcel internal api--><path d="M239.5156,235 C249.4935,235 259.4713,235 269.4492,235 " fill="none" id="pyexcel public api-pyexcel internal api" style="stroke: #A80036; stroke-width: 1.0;"/><polygon fill="#A80036" points="274.667,235,265.667,231,269.667,235,265.667,239,274.667,235" style="stroke: #A80036; stroke-width: 1.0;"/><!--link pyexcel internal api to pyexcel plugin interfaces--><path d="M429.1875,235 C439.1956,235 449.2038,235 459.2119,235 " fill="none" id="pyexcel internal api-pyexcel plugin interfaces" style="stroke: #A80036; stroke-width: 1.0;"/><polygon fill="#A80036" points="464.4456,235,455.4456,231,459.4456,235,455.4456,239,464.4456,235" style="stroke: #A80036; stroke-width: 1.0;"/><!--link pyexcel-text to pyexcel plugin interfaces--><path d="M676.5042,159.9369 C650.1199,176.9362 613.2948,200.6624 588.153,216.8612 " fill="none" id="pyexcel-text-pyexcel plugin interfaces" style="stroke: #A80036; stroke-width: 1.0; stroke-dasharray: 7.0,7.0;"/><polygon fill="#A80036" points="680.9742,157.0569,671.2421,158.569,676.7711,159.765,675.5751,165.294,680.9742,157.0569" style="stroke: #A80036; stroke-width: 1.0;"/><!--link pyexcel-pygal to pyexcel plugin interfaces--><path d="M560,162.0611 C560,178.8106 560,201.1694 560,216.6977 " fill="none" id="pyexcel-pygal-pyexcel plugin interfaces" style="stroke: #A80036; stroke-width: 1.0; stroke-dasharray: 7.0,7.0;"/><polygon fill="#A80036" points="560,157.0569,556,166.0569,560,162.0569,564,166.0569,560,157.0569" style="stroke: #A80036; stroke-width: 1.0;"/><!--link pyexcel-handsontable to pyexcel plugin interfaces--><path d="M417.6827,159.5168 C449.7852,176.5435 495.0069,200.5285 525.8007,216.8612 " fill="none" id="pyexcel-handsontable-pyexcel plugin interfaces" style="stroke: #A80036; stroke-width: 1.0; stroke-dasharray: 7.0,7.0;"/><polygon fill="#A80036" points="413.0447,157.0569,419.1213,164.8077,417.4618,159.3998,422.8698,157.7403,413.0447,157.0569" style="stroke: #A80036; stroke-width: 1.0;"/><!--link pyexcel plugin interfaces to data source plugins--><path d="M564.138,253.0569 C567.68,268.5126 572.8023,290.8647 576.6542,307.6731 " fill="none" id="pyexcel plugin interfaces-data source plugins" style="stroke: #A80036; stroke-width: 1.0; stroke-dasharray: 7.0,7.0;"/><polygon fill="#A80036" points="577.8057,312.6977,579.694,303.0316,576.6887,307.8241,571.8962,304.8187,577.8057,312.6977" style="stroke: #A80036; stroke-width: 1.0;"/><!--link pyexcel plugin interfaces to data renderer plugins--><path d="M527.0838,253.0569 C497.3576,269.3638 453.6371,293.3476 422.5564,310.3976 " fill="none" id="pyexcel plugin interfaces-data renderer plugins" style="stroke: #A80036; stroke-width: 1.0; stroke-dasharray: 7.0,7.0;"/><polygon fill="#A80036" points="418.0656,312.8612,427.8801,312.0394,422.4493,310.4564,424.0324,305.0255,418.0656,312.8612" style="stroke: #A80036; stroke-width: 1.0;"/><!--link pyexcel plugin interfaces to data parsing plugins--><path d="M464.174,250.0484 C397.9962,260.9344 316.1607,275.5139 283,286 C262.9306,292.3464 241.5873,301.7978 223.9599,310.403 " fill="none" id="pyexcel plugin interfaces-data parsing plugins" style="stroke: #A80036; stroke-width: 1.0; stroke-dasharray: 7.0,7.0;"/><polygon fill="#A80036" points="219.0908,312.8043,228.9318,312.4109,223.5751,310.5927,225.3933,305.236,219.0908,312.8043" style="stroke: #A80036; stroke-width: 1.0;"/><!--link data renderer plugins to pyexcel-io public api--><path d="M361.3004,349.0569 C340.2277,365.1122 309.3878,388.6093 287.083,405.6035 " fill="none" id="data renderer plugins-pyexcel-io public api" style="stroke: #A80036; stroke-width: 1.0;"/><polygon fill="#A80036" points="283.0218,408.6977,292.6049,406.4253,286.999,405.6676,287.7567,400.0617,283.0218,408.6977" style="stroke: #A80036; stroke-width: 1.0;"/><!--link data parsing plugins to pyexcel-io public api--><path d="M198.9188,349.0569 C211.0381,364.7791 228.6581,387.6375 241.6851,404.5375 " fill="none" id="data parsing plugins-pyexcel-io public api" style="stroke: #A80036; stroke-width: 1.0;"/><polygon fill="#A80036" points="244.892,408.6977,242.5654,399.1276,241.8394,404.7377,236.2293,404.0117,244.892,408.6977" style="stroke: #A80036; stroke-width: 1.0;"/><!--link pyexcel-io public api to pyexcel-io plugin interfaces--><path d="M259,445.2025 C259,462.6276 259,489.0009 259,508.0045 " fill="none" id="pyexcel-io public api-pyexcel-io plugin interfaces" style="stroke: #A80036; stroke-width: 1.0;"/><polygon fill="#A80036" points="259,513.1555,263,504.1555,259,508.1555,255,504.1555,259,513.1555" style="stroke: #A80036; stroke-width: 1.0;"/><!--link pyexcel-io plugin interfaces to csv, csvz, tsv, tsvz--><path d="M263.8772,549.7025 C268.5461,567.1276 275.6127,593.5009 280.7045,612.5045 " fill="none" id="pyexcel-io plugin interfaces-csv, csvz, tsv, tsvz" style="stroke: #A80036; stroke-width: 1.0; stroke-dasharray: 7.0,7.0;"/><polygon fill="#A80036" points="282.0847,617.6555,283.619,607.9269,280.7906,612.8259,275.8916,609.9975,282.0847,617.6555" style="stroke: #A80036; stroke-width: 1.0;"/><!--link pyexcel-io plugin interfaces to django, sqlalchemy--><path d="M232.3494,549.7025 C205.7746,567.8533 164.9845,595.7132 136.9817,614.8393 " fill="none" id="pyexcel-io plugin interfaces-django, sqlalchemy" style="stroke: #A80036; stroke-width: 1.0; stroke-dasharray: 7.0,7.0;"/><polygon fill="#A80036" points="132.6014,617.8311,142.2893,616.058,136.7302,615.011,137.7772,609.4519,132.6014,617.8311" style="stroke: #A80036; stroke-width: 1.0;"/><!--link pyexcel-xls to pyexcel-io plugin interfaces--><path d="M553.5505,446.8598 C547.6608,449.0087 541.7163,451.1014 536,453 C466.3876,476.1211 385.5607,498.5299 329.2517,513.4452 " fill="none" id="pyexcel-xls-pyexcel-io plugin interfaces" style="stroke: #A80036; stroke-width: 1.0; stroke-dasharray: 7.0,7.0;"/><polygon fill="#A80036" points="558.4787,445.0447,548.6508,444.4019,553.7868,446.7728,551.4159,451.9088,558.4787,445.0447" style="stroke: #A80036; stroke-width: 1.0;"/><!--link pyexcel-xlsx to pyexcel-io plugin interfaces--><path d="M692.7396,446.6976 C685.8249,449.0046 678.7788,451.1801 672,453 C545.9562,486.8386 511.0517,479.8037 383,505 C369.6082,507.6351 355.4298,510.5481 341.6314,513.45 " fill="none" id="pyexcel-xlsx-pyexcel-io plugin interfaces" style="stroke: #A80036; stroke-width: 1.0; stroke-dasharray: 7.0,7.0;"/><polygon fill="#A80036" points="697.5007,445.0822,687.6927,444.1859,692.7658,446.6886,690.263,451.7617,697.5007,445.0822" style="stroke: #A80036; stroke-width: 1.0;"/><!--link pyexcel-ods to pyexcel-io plugin interfaces--><path d="M412.8197,615.1442 C400.4927,607.3524 386.2173,598.5645 373,591 C347.4233,576.3619 317.9135,561.0002 295.3266,549.5528 " fill="none" id="pyexcel-ods-pyexcel-io plugin interfaces" style="stroke: #A80036; stroke-width: 1.0; stroke-dasharray: 7.0,7.0;"/><polygon fill="#A80036" points="417.2674,617.9657,411.8101,609.767,413.0452,615.2874,407.5249,616.5225,417.2674,617.9657" style="stroke: #A80036; stroke-width: 1.0;"/><!--link pyexcel-io plugin interfaces to pyexcel-ods3--><path d="M342.4549,549.5402 C410.8275,564.5457 498.8469,584.4658 515,591 C530.5558,597.2926 546.6572,606.5378 559.9343,615.014 " fill="none" id="pyexcel-io plugin interfaces-pyexcel-ods3" style="stroke: #A80036; stroke-width: 1.0; stroke-dasharray: 7.0,7.0;"/><polygon fill="#A80036" points="564.3239,617.8537,558.94,609.6067,560.1258,615.1379,554.5946,616.3237,564.3239,617.8537" style="stroke: #A80036; stroke-width: 1.0;"/><!--link pyexcel-io plugin interfaces to pyexcel-xlsxw--><path d="M293.7731,513.3311 C328.7742,495.043 382.6867,466.8737 419.3342,447.7254 " fill="none" id="pyexcel-io plugin interfaces-pyexcel-xlsxw" style="stroke: #A80036; stroke-width: 1.0; stroke-dasharray: 7.0,7.0;"/><polygon fill="#A80036" points="424.1627,445.2025,414.3335,445.825,419.7311,447.5179,418.0382,452.9155,424.1627,445.2025" style="stroke: #A80036; stroke-width: 1.0;"/><!--link pyexcel-io plugin interfaces to pyexcel-odsr--><path d="M337.8367,549.51 C352.7883,552.5954 368.3388,555.5811 383,558 C507.5053,578.5421 545.8036,549.578 665,591 C681.0463,596.5762 697.2905,606.1213 710.3686,614.9895 " fill="none" id="pyexcel-io plugin interfaces-pyexcel-odsr" style="stroke: #A80036; stroke-width: 1.0; stroke-dasharray: 7.0,7.0;"/><polygon fill="#A80036" points="714.6775,617.9643,709.5436,609.5593,710.5628,615.1236,704.9985,616.1428,714.6775,617.9643" style="stroke: #A80036; stroke-width: 1.0;"/><!--link tabulate to pyexcel-text--><path d="M709.7451,61.1401 C709.5657,79.8859 709.3304,104.4746 709.1726,120.9587 " fill="none" id="tabulate-pyexcel-text" style="stroke: #A80036; stroke-width: 1.0;"/><!--link pygal to pyexcel-pygal--><path d="M558.5099,61.1401 C558.8686,79.8859 559.3392,104.4746 559.6547,120.9587 " fill="none" id="pygal-pyexcel-pygal" style="stroke: #A80036; stroke-width: 1.0;"/><!--link handsontable to pyexcel-handsontable--><path d="M379,61.1401 C379,79.8859 379,104.4746 379,120.9587 " fill="none" id="handsontable-pyexcel-handsontable" style="stroke: #A80036; stroke-width: 1.0;"/><!--link pyexcel-xls to xlrd--><path d="M605.2193,445.2025 C606.3239,461.6929 607.9654,486.1973 609.2172,504.8852 " fill="none" id="pyexcel-xls-xlrd" style="stroke: #A80036; stroke-width: 1.0;"/><!--link pyexcel-xls to xlwt--><path d="M631.6957,445.2025 C656.7863,461.6929 694.0705,486.1973 722.5048,504.8852 " fill="none" id="pyexcel-xls-xlwt" style="stroke: #A80036; stroke-width: 1.0;"/><!--link pyexcel-xlsx to openpyxl--><path d="M773.7859,445.2025 C800.7702,461.6929 840.8683,486.1973 871.4486,504.8852 " fill="none" id="pyexcel-xlsx-openpyxl" style="stroke: #A80036; stroke-width: 1.0;"/><!--link pyexcel-xlsxw to xlsxwriter--><path d="M459,445.2025 C459,461.6929 459,486.1973 459,504.8852 " fill="none" id="pyexcel-xlsxw-xlsxwriter" style="stroke: #A80036; stroke-width: 1.0;"/><!--link pyexcel-ods3 to ezodf--><path d="M590.4357,654.0265 C591.1403,683.1809 592.5337,740.8327 593.3541,774.7745 " fill="none" id="pyexcel-ods3-ezodf" style="stroke: #A80036; stroke-width: 1.0;"/><!--link pyexcel-ods to odfpy--><path d="M444.6732,654.0265 C444.1448,683.1809 443.0997,740.8327 442.4844,774.7745 " fill="none" id="pyexcel-ods-odfpy" style="stroke: #A80036; stroke-width: 1.0;"/><!--
@startuml

package "pyexcel" {
[pyexcel public api]
[pyexcel internal api]
[pyexcel plugin interfaces]
folder "plugins" {
  [data source plugins]
  [data renderer plugins]
  [data parsing plugins]
 }
}

package "pyexcel-io" {
[pyexcel-io public api]
[pyexcel-io plugin interfaces]
folder "io plugins" {
  [csv, csvz, tsv, tsvz]
  [django, sqlalchemy]
 }
}

cloud "ods" {
[pyexcel-ods]
[pyexcel-ods3]
[pyexcel-odsr]
}

cloud "xls, xlsx" {
[pyexcel-xls]
[pyexcel-xlsx]
[pyexcel-xlsxw]
}

[tabulate] <<dependency>>
[pygal] <<dependency>>
[handsontable] <<dependency>>
[xlrd] <<dependency>>
[xlwt] <<dependency>>
[openpyxl] <<dependency>>
[xlsxwriter] <<dependency>>
[ezodf] <<dependency>>
[odfpy] <<dependency>>

[pyexcel public api] -right-> [pyexcel internal api]
[pyexcel internal api] -right-> [pyexcel plugin interfaces]
[pyexcel plugin interfaces] .up.> [pyexcel-text]
[pyexcel plugin interfaces] .up.> [pyexcel-pygal]
[pyexcel plugin interfaces] .up.> [pyexcel-handsontable]
[pyexcel plugin interfaces] ..> [data source plugins]
[pyexcel plugin interfaces] ..> [data renderer plugins]
[pyexcel plugin interfaces] ..> [data parsing plugins]

[data renderer plugins]  -down-> [pyexcel-io public api]
[data parsing plugins] - -> [pyexcel-io public api]

[pyexcel-io public api] - -> [pyexcel-io plugin interfaces]
[pyexcel-io plugin interfaces] ..> [csv, csvz, tsv, tsvz]
[pyexcel-io plugin interfaces] ..> [django, sqlalchemy]
[pyexcel-io plugin interfaces] .up.> [pyexcel-xls]
[pyexcel-io plugin interfaces] .up.> [pyexcel-xlsx]
[pyexcel-io plugin interfaces] .left.> [pyexcel-ods]
[pyexcel-io plugin interfaces] .right.> [pyexcel-ods3]
[pyexcel-io plugin interfaces] .right.> [pyexcel-xlsxw]
[pyexcel-io plugin interfaces] .right.> [pyexcel-odsr]

[pyexcel-text] -up- [tabulate]
[pyexcel-pygal] -up- [pygal]
[pyexcel-handsontable] -up- [handsontable]
[pyexcel-xls] -right- [xlrd]
[pyexcel-xls] -right- [xlwt]
[pyexcel-xlsx] -right- [openpyxl]
[pyexcel-xlsxw] -down- [xlsxwriter]
[pyexcel-ods3] - - - [ezodf]
[pyexcel-ods] - - - [odfpy]

skinparam component{

backgroundColor<<dependency>> White

}

@enduml

PlantUML version 1.2017.13(Wed May 10 17:52:33 BST 2017)
(GPL source distribution)
Java Runtime: Java(TM) SE Runtime Environment
JVM: Java HotSpot(TM) 64-Bit Server VM
Java Version: 1.8.0_131-b11
Operating System: Mac OS X
OS Version: 10.11.6
Default Encoding: UTF-8
Language: en
Country: US
--></g></svg>