<?xml version="1.0" encoding="UTF-8" standalone="no"?><svg xmlns="http://www.w3.org/2000/svg" xmlns:xlink="http://www.w3.org/1999/xlink" contentScriptType="application/ecmascript" contentStyleType="text/css" height="836px" preserveAspectRatio="none" style="width:1438px;height:836px;" version="1.1" viewBox="0 0 1438 836" width="1438px" zoomAndPan="magnify"><defs><filter height="300%" id="fgcilprrn6h3p" width="300%" x="-1" y="-1"><feGaussianBlur result="blurOut" stdDeviation="2.0"/><feColorMatrix in="blurOut" result="blurOut2" type="matrix" values="0 0 0 0 0 0 0 0 0 0 0 0 0 0 0 0 0 0 .4 0"/><feOffset dx="4.0" dy="4.0" in="blurOut2" result="blurOut3"/><feBlend in="SourceGraphic" in2="blurOut3" mode="normal"/></filter></defs><g><!--cluster pyexcel--><polygon fill="#FFFFFF" filter="url(#fgcilprrn6h3p)" points="88,190,147,190,154,212.4883,676,212.4883,676,365,88,365,88,190" style="stroke: #000000; stroke-width: 2.0;"/><line style="stroke: #000000; stroke-width: 2.0;" x1="88" x2="154" y1="212.4883" y2="212.4883"/><text fill="#000000" font-family="sans-serif" font-size="14" font-weight="bold" lengthAdjust="spacingAndGlyphs" textLength="53" x="92" y="205.5352">pyexcel</text><!--cluster plugins--><polygon fill="#FFFFFF" filter="url(#fgcilprrn6h3p)" points="96,286,156,286,163,308.4883,668,308.4883,668,357,96,357,96,286" style="stroke: #000000; stroke-width: 2.0;"/><line style="stroke: #000000; stroke-width: 2.0;" x1="96" x2="163" y1="308.4883" y2="308.4883"/><text fill="#000000" font-family="sans-serif" font-size="14" font-weight="bold" lengthAdjust="spacingAndGlyphs" textLength="54" x="100" y="301.5352">plugins</text><!--cluster pyexcel-io--><polygon fill="#FFFFFF" filter="url(#fgcilprrn6h3p)" points="14,382,96,382,103,404.4883,373,404.4883,373,670,14,670,14,382" style="stroke: #000000; stroke-width: 2.0;"/><line style="stroke: #000000; stroke-width: 2.0;" x1="14" x2="103" y1="404.4883" y2="404.4883"/><text fill="#000000" font-family="sans-serif" font-size="14" font-weight="bold" lengthAdjust="spacingAndGlyphs" textLength="76" x="18" y="397.5352">pyexcel-io</text><!--cluster io plugins--><polygon fill="#FFFFFF" filter="url(#fgcilprrn6h3p)" points="22,591,101,591,108,613.4883,365,613.4883,365,662,22,662,22,591" style="stroke: #000000; stroke-width: 2.0;"/><line style="stroke: #000000; stroke-width: 2.0;" x1="22" x2="108" y1="613.4883" y2="613.4883"/><text fill="#000000" font-family="sans-serif" font-size="14" font-weight="bold" lengthAdjust="spacingAndGlyphs" textLength="73" x="26" y="606.5352">io plugins</text><!--cluster ods--><path d="M387,598 C387,595 389,593 392,593 C395,593 397,595 397,598 C397,595 399,593 402,593 C405,593 407,595 407,598 C407,595 409,593 412,593 C415,593 417,595 417,598 C417,595 419,593 422,593 C425,593 427,595 427,598 C427,595 429,593 432,593 C435,593 437,595 437,598 C437,595 439,593 442,593 C445,593 447,595 447,598 C447,595 449,593 452,593 C455,593 457,595 457,598 C457,595 459,593 462,593 C465,593 467,595 467,598 C467,595 469,593 472,593 C475,593 477,595 477,598 C477,595 479,593 482,593 C485,593 487,595 487,598 C487,595 489,593 492,593 C495,593 497,595 497,598 C497,595 499,593 502,593 C505,593 507,595 507,598 C507,595 509,593 512,593 C515,593 517,595 517,598 C517,595 519,593 522,593 C525,593 527,595 527,598 C527,595 529,593 532,593 C535,593 537,595 537,598 C537,595 539,593 542,593 C545,593 547,595 547,598 C547,595 549,593 552,593 C555,593 557,595 557,598 C557,595 559,593 562,593 C565,593 567,595 567,598 C567,595 569,593 572,593 C575,593 577,595 577,598 C577,595 579,593 582,593 C585,593 587,595 587,598 C587,595 589,593 592,593 C595,593 597,595 597,598 C597,595 599,593 602,593 C605,593 607,595 607,598 C607,595 609,593 612,593 C615,593 617,595 617,598 C617,595 619,593 622,593 C625,593 627,595 627,598 C627,595 629,593 632,593 C635,593 637,595 637,598 C637,595 639,593 642,593 C645,593 647,595 647,598 C647,595 649,593 652,593 C655,593 657,595 657,598 C657,595 659,593 662,593 C665,593 667,595 667,598 C667,595 669,593 672,593 C675,593 677,595 677,598 C677,595 679,593 682,593 C685,593 687,595 687,598 C687,595 689,593 692,593 C695,593 697,595 697,598 C697,595 699,593 702,593 C705,593 707,595 707,598 C707,595 709,593 712,593 C715,593 717,595 717,598 C717,595 719,593 722,593 C725,593 727,595 727,598 C727,595 729,593 732,593 C735,593 737,595 737,598 C737,595 739,593 742,593 C745,593 747,595 747,598 C747,595 749,593 752,593 C755,593 757,595 757,598 C757,595 759,593 762,593 C765,593 767,595 767,598 C767,595 769,593 772,593 C775,593 777,595 777,598 C777,595 779,593 782,593 C785,593 787,595 787,598 C787,595 789,593 792,593 C795,593 797,595 797,598 C800,598 802,600 802,603 C802,606 800,608 797,608 C800,608 802,610 802,613 C802,616 800,618 797,618 C800,618 802,620 802,623 C802,626 800,628 797,628 C800,628 802,630 802,633 C802,636 800,638 797,638 C800,638 802,640 802,643 C802,646 800,648 797,648 C800,648 802,650 802,653 C802,656 800,658 797,658 C797,661 794,663 792,663 C789,663 787,661 787,658 C787,661 784,663 782,663 C779,663 777,661 777,658 C777,661 774,663 772,663 C769,663 767,661 767,658 C767,661 764,663 762,663 C759,663 757,661 757,658 C757,661 754,663 752,663 C749,663 747,661 747,658 C747,661 744,663 742,663 C739,663 737,661 737,658 C737,661 734,663 732,663 C729,663 727,661 727,658 C727,661 724,663 722,663 C719,663 717,661 717,658 C717,661 714,663 712,663 C709,663 707,661 707,658 C707,661 704,663 702,663 C699,663 697,661 697,658 C697,661 694,663 692,663 C689,663 687,661 687,658 C687,661 684,663 682,663 C679,663 677,661 677,658 C677,661 674,663 672,663 C669,663 667,661 667,658 C667,661 664,663 662,663 C659,663 657,661 657,658 C657,661 654,663 652,663 C649,663 647,661 647,658 C647,661 644,663 642,663 C639,663 637,661 637,658 C637,661 634,663 632,663 C629,663 627,661 627,658 C627,661 624,663 622,663 C619,663 617,661 617,658 C617,661 614,663 612,663 C609,663 607,661 607,658 C607,661 604,663 602,663 C599,663 597,661 597,658 C597,661 594,663 592,663 C589,663 587,661 587,658 C587,661 584,663 582,663 C579,663 577,661 577,658 C577,661 574,663 572,663 C569,663 567,661 567,658 C567,661 564,663 562,663 C559,663 557,661 557,658 C557,661 554,663 552,663 C549,663 547,661 547,658 C547,661 544,663 542,663 C539,663 537,661 537,658 C537,661 534,663 532,663 C529,663 527,661 527,658 C527,661 524,663 522,663 C519,663 517,661 517,658 C517,661 514,663 512,663 C509,663 507,661 507,658 C507,661 504,663 502,663 C499,663 497,661 497,658 C497,661 494,663 492,663 C489,663 487,661 487,658 C487,661 484,663 482,663 C479,663 477,661 477,658 C477,661 474,663 472,663 C469,663 467,661 467,658 C467,661 464,663 462,663 C459,663 457,661 457,658 C457,661 454,663 452,663 C449,663 447,661 447,658 C447,661 444,663 442,663 C439,663 437,661 437,658 C437,661 434,663 432,663 C429,663 427,661 427,658 C427,661 424,663 422,663 C419,663 417,661 417,658 C417,661 414,663 412,663 C409,663 407,661 407,658 C407,661 404,663 402,663 C399,663 397,661 397,658 C397,661 394,663 392,663 C389,663 387,661 387,658 C384,658 382,656 382,653 C382,650 384,648 387,648 C384,648 382,646 382,643 C382,640 384,638 387,638 C384,638 382,636 382,633 C382,630 384,628 387,628 C384,628 382,626 382,623 C382,620 384,618 387,618 C384,618 382,616 382,613 C382,610 384,608 387,608 C384,608 382,606 382,603 C382,600 384,598 387,598 " fill="#FFFFFF" filter="url(#fgcilprrn6h3p)" style="stroke: #000000; stroke-width: 2.0;"/><text fill="#000000" font-family="sans-serif" font-size="14" font-weight="bold" lengthAdjust="spacingAndGlyphs" textLength="26" x="579.5" y="617.5352">ods</text><!--cluster xls, xlsx--><path d="M405,389 C405,386 407,384 410,384 C413,384 415,386 415,389 C415,386 417,384 420,384 C423,384 425,386 425,389 C425,386 427,384 430,384 C433,384 435,386 435,389 C435,386 437,384 440,384 C443,384 445,386 445,389 C445,386 447,384 450,384 C453,384 455,386 455,389 C455,386 457,384 460,384 C463,384 465,386 465,389 C465,386 467,384 470,384 C473,384 475,386 475,389 C475,386 477,384 480,384 C483,384 485,386 485,389 C485,386 487,384 490,384 C493,384 495,386 495,389 C495,386 497,384 500,384 C503,384 505,386 505,389 C505,386 507,384 510,384 C513,384 515,386 515,389 C515,386 517,384 520,384 C523,384 525,386 525,389 C525,386 527,384 530,384 C533,384 535,386 535,389 C535,386 537,384 540,384 C543,384 545,386 545,389 C545,386 547,384 550,384 C553,384 555,386 555,389 C555,386 557,384 560,384 C563,384 565,386 565,389 C565,386 567,384 570,384 C573,384 575,386 575,389 C575,386 577,384 580,384 C583,384 585,386 585,389 C585,386 587,384 590,384 C593,384 595,386 595,389 C595,386 597,384 600,384 C603,384 605,386 605,389 C605,386 607,384 610,384 C613,384 615,386 615,389 C615,386 617,384 620,384 C623,384 625,386 625,389 C625,386 627,384 630,384 C633,384 635,386 635,389 C635,386 637,384 640,384 C643,384 645,386 645,389 C645,386 647,384 650,384 C653,384 655,386 655,389 C655,386 657,384 660,384 C663,384 665,386 665,389 C665,386 667,384 670,384 C673,384 675,386 675,389 C675,386 677,384 680,384 C683,384 685,386 685,389 C685,386 687,384 690,384 C693,384 695,386 695,389 C695,386 697,384 700,384 C703,384 705,386 705,389 C705,386 707,384 710,384 C713,384 715,386 715,389 C715,386 717,384 720,384 C723,384 725,386 725,389 C725,386 727,384 730,384 C733,384 735,386 735,389 C735,386 737,384 740,384 C743,384 745,386 745,389 C745,386 747,384 750,384 C753,384 755,386 755,389 C755,386 757,384 760,384 C763,384 765,386 765,389 C765,386 767,384 770,384 C773,384 775,386 775,389 C775,386 777,384 780,384 C783,384 785,386 785,389 C785,386 787,384 790,384 C793,384 795,386 795,389 C795,386 797,384 800,384 C803,384 805,386 805,389 C805,386 807,384 810,384 C813,384 815,386 815,389 C815,386 817,384 820,384 C823,384 825,386 825,389 C825,386 827,384 830,384 C833,384 835,386 835,389 C835,386 837,384 840,384 C843,384 845,386 845,389 C845,386 847,384 850,384 C853,384 855,386 855,389 C855,386 857,384 860,384 C863,384 865,386 865,389 C865,386 867,384 870,384 C873,384 875,386 875,389 C875,386 877,384 880,384 C883,384 885,386 885,389 C885,386 887,384 890,384 C893,384 895,386 895,389 C895,386 897,384 900,384 C903,384 905,386 905,389 C905,386 907,384 910,384 C913,384 915,386 915,389 C915,386 917,384 920,384 C923,384 925,386 925,389 C925,386 927,384 930,384 C933,384 935,386 935,389 C935,386 937,384 940,384 C943,384 945,386 945,389 C945,386 947,384 950,384 C953,384 955,386 955,389 C955,386 957,384 960,384 C963,384 965,386 965,389 C965,386 967,384 970,384 C973,384 975,386 975,389 C975,386 977,384 980,384 C983,384 985,386 985,389 C985,386 987,384 990,384 C993,384 995,386 995,389 C995,386 997,384 1000,384 C1003,384 1005,386 1005,389 C1005,386 1007,384 1010,384 C1013,384 1015,386 1015,389 C1015,386 1017,384 1020,384 C1023,384 1025,386 1025,389 C1025,386 1027,384 1030,384 C1033,384 1035,386 1035,389 C1035,386 1037,384 1040,384 C1043,384 1045,386 1045,389 C1045,386 1047,384 1050,384 C1053,384 1055,386 1055,389 C1055,386 1057,384 1060,384 C1063,384 1065,386 1065,389 C1065,386 1067,384 1070,384 C1073,384 1075,386 1075,389 C1075,386 1077,384 1080,384 C1083,384 1085,386 1085,389 C1085,386 1087,384 1090,384 C1093,384 1095,386 1095,389 C1095,386 1097,384 1100,384 C1103,384 1105,386 1105,389 C1105,386 1107,384 1110,384 C1113,384 1115,386 1115,389 C1115,386 1117,384 1120,384 C1123,384 1125,386 1125,389 C1125,386 1127,384 1130,384 C1133,384 1135,386 1135,389 C1135,386 1137,384 1140,384 C1143,384 1145,386 1145,389 C1148,389 1150,391 1150,394 C1150,397 1148,399 1145,399 C1148,399 1150,401 1150,404 C1150,407 1148,409 1145,409 C1148,409 1150,411 1150,414 C1150,417 1148,419 1145,419 C1148,419 1150,421 1150,424 C1150,427 1148,429 1145,429 C1148,429 1150,431 1150,434 C1150,437 1148,439 1145,439 C1148,439 1150,441 1150,444 C1150,447 1148,449 1145,449 C1145,452 1142,454 1140,454 C1137,454 1135,452 1135,449 C1135,452 1132,454 1130,454 C1127,454 1125,452 1125,449 C1125,452 1122,454 1120,454 C1117,454 1115,452 1115,449 C1115,452 1112,454 1110,454 C1107,454 1105,452 1105,449 C1105,452 1102,454 1100,454 C1097,454 1095,452 1095,449 C1095,452 1092,454 1090,454 C1087,454 1085,452 1085,449 C1085,452 1082,454 1080,454 C1077,454 1075,452 1075,449 C1075,452 1072,454 1070,454 C1067,454 1065,452 1065,449 C1065,452 1062,454 1060,454 C1057,454 1055,452 1055,449 C1055,452 1052,454 1050,454 C1047,454 1045,452 1045,449 C1045,452 1042,454 1040,454 C1037,454 1035,452 1035,449 C1035,452 1032,454 1030,454 C1027,454 1025,452 1025,449 C1025,452 1022,454 1020,454 C1017,454 1015,452 1015,449 C1015,452 1012,454 1010,454 C1007,454 1005,452 1005,449 C1005,452 1002,454 1000,454 C997,454 995,452 995,449 C995,452 992,454 990,454 C987,454 985,452 985,449 C985,452 982,454 980,454 C977,454 975,452 975,449 C975,452 972,454 970,454 C967,454 965,452 965,449 C965,452 962,454 960,454 C957,454 955,452 955,449 C955,452 952,454 950,454 C947,454 945,452 945,449 C945,452 942,454 940,454 C937,454 935,452 935,449 C935,452 932,454 930,454 C927,454 925,452 925,449 C925,452 922,454 920,454 C917,454 915,452 915,449 C915,452 912,454 910,454 C907,454 905,452 905,449 C905,452 902,454 900,454 C897,454 895,452 895,449 C895,452 892,454 890,454 C887,454 885,452 885,449 C885,452 882,454 880,454 C877,454 875,452 875,449 C875,452 872,454 870,454 C867,454 865,452 865,449 C865,452 862,454 860,454 C857,454 855,452 855,449 C855,452 852,454 850,454 C847,454 845,452 845,449 C845,452 842,454 840,454 C837,454 835,452 835,449 C835,452 832,454 830,454 C827,454 825,452 825,449 C825,452 822,454 820,454 C817,454 815,452 815,449 C815,452 812,454 810,454 C807,454 805,452 805,449 C805,452 802,454 800,454 C797,454 795,452 795,449 C795,452 792,454 790,454 C787,454 785,452 785,449 C785,452 782,454 780,454 C777,454 775,452 775,449 C775,452 772,454 770,454 C767,454 765,452 765,449 C765,452 762,454 760,454 C757,454 755,452 755,449 C755,452 752,454 750,454 C747,454 745,452 745,449 C745,452 742,454 740,454 C737,454 735,452 735,449 C735,452 732,454 730,454 C727,454 725,452 725,449 C725,452 722,454 720,454 C717,454 715,452 715,449 C715,452 712,454 710,454 C707,454 705,452 705,449 C705,452 702,454 700,454 C697,454 695,452 695,449 C695,452 692,454 690,454 C687,454 685,452 685,449 C685,452 682,454 680,454 C677,454 675,452 675,449 C675,452 672,454 670,454 C667,454 665,452 665,449 C665,452 662,454 660,454 C657,454 655,452 655,449 C655,452 652,454 650,454 C647,454 645,452 645,449 C645,452 642,454 640,454 C637,454 635,452 635,449 C635,452 632,454 630,454 C627,454 625,452 625,449 C625,452 622,454 620,454 C617,454 615,452 615,449 C615,452 612,454 610,454 C607,454 605,452 605,449 C605,452 602,454 600,454 C597,454 595,452 595,449 C595,452 592,454 590,454 C587,454 585,452 585,449 C585,452 582,454 580,454 C577,454 575,452 575,449 C575,452 572,454 570,454 C567,454 565,452 565,449 C565,452 562,454 560,454 C557,454 555,452 555,449 C555,452 552,454 550,454 C547,454 545,452 545,449 C545,452 542,454 540,454 C537,454 535,452 535,449 C535,452 532,454 530,454 C527,454 525,452 525,449 C525,452 522,454 520,454 C517,454 515,452 515,449 C515,452 512,454 510,454 C507,454 505,452 505,449 C505,452 502,454 500,454 C497,454 495,452 495,449 C495,452 492,454 490,454 C487,454 485,452 485,449 C485,452 482,454 480,454 C477,454 475,452 475,449 C475,452 472,454 470,454 C467,454 465,452 465,449 C465,452 462,454 460,454 C457,454 455,452 455,449 C455,452 452,454 450,454 C447,454 445,452 445,449 C445,452 442,454 440,454 C437,454 435,452 435,449 C435,452 432,454 430,454 C427,454 425,452 425,449 C425,452 422,454 420,454 C417,454 415,452 415,449 C415,452 412,454 410,454 C407,454 405,452 405,449 C402,449 400,447 400,444 C400,441 402,439 405,439 C402,439 400,437 400,434 C400,431 402,429 405,429 C402,429 400,427 400,424 C400,421 402,419 405,419 C402,419 400,417 400,414 C400,411 402,409 405,409 C402,409 400,407 400,404 C400,401 402,399 405,399 C402,399 400,397 400,394 C400,391 402,389 405,389 " fill="#FFFFFF" filter="url(#fgcilprrn6h3p)" style="stroke: #000000; stroke-width: 2.0;"/><text fill="#000000" font-family="sans-serif" font-size="14" font-weight="bold" lengthAdjust="spacingAndGlyphs" textLength="58" x="743" y="408.5352">xls, xlsx</text><!--entity pyexcel public api--><rect fill="#FEFECE" filter="url(#fgcilprrn6h3p)" height="36.4883" style="stroke: #A80036; stroke-width: 1.5;" width="143" x="96.5" y="217"/><rect fill="#FEFECE" height="5" style="stroke: #A80036; stroke-width: 1.5;" width="10" x="91.5" y="222"/><rect fill="#FEFECE" height="5" style="stroke: #A80036; stroke-width: 1.5;" width="10" x="91.5" y="243.4883"/><text fill="#000000" font-family="sans-serif" font-size="14" lengthAdjust="spacingAndGlyphs" textLength="123" x="106.5" y="240.5352">pyexcel public api</text><!--entity pyexcel internal api--><rect fill="#FEFECE" filter="url(#fgcilprrn6h3p)" height="36.4883" style="stroke: #A80036; stroke-width: 1.5;" width="154" x="275" y="217"/><rect fill="#FEFECE" height="5" style="stroke: #A80036; stroke-width: 1.5;" width="10" x="270" y="222"/><rect fill="#FEFECE" height="5" style="stroke: #A80036; stroke-width: 1.5;" width="10" x="270" y="243.4883"/><text fill="#000000" font-family="sans-serif" font-size="14" lengthAdjust="spacingAndGlyphs" textLength="134" x="285" y="240.5352">pyexcel internal api</text><!--entity pyexcel plugin interfaces--><rect fill="#FEFECE" filter="url(#fgcilprrn6h3p)" height="36.4883" style="stroke: #A80036; stroke-width: 1.5;" width="191" x="464.5" y="217"/><rect fill="#FEFECE" height="5" style="stroke: #A80036; stroke-width: 1.5;" width="10" x="459.5" y="222"/><rect fill="#FEFECE" height="5" style="stroke: #A80036; stroke-width: 1.5;" width="10" x="459.5" y="243.4883"/><text fill="#000000" font-family="sans-serif" font-size="14" lengthAdjust="spacingAndGlyphs" textLength="171" x="474.5" y="240.5352">pyexcel plugin interfaces</text><!--entity data source plugins--><rect fill="#FEFECE" filter="url(#fgcilprrn6h3p)" height="36.4883" style="stroke: #A80036; stroke-width: 1.5;" width="155" x="504.5" y="313"/><rect fill="#FEFECE" height="5" style="stroke: #A80036; stroke-width: 1.5;" width="10" x="499.5" y="318"/><rect fill="#FEFECE" height="5" style="stroke: #A80036; stroke-width: 1.5;" width="10" x="499.5" y="339.4883"/><text fill="#000000" font-family="sans-serif" font-size="14" lengthAdjust="spacingAndGlyphs" textLength="135" x="514.5" y="336.5352">data source plugins</text><!--entity data renderer plugins--><rect fill="#FEFECE" filter="url(#fgcilprrn6h3p)" height="36.4883" style="stroke: #A80036; stroke-width: 1.5;" width="169" x="300.5" y="313"/><rect fill="#FEFECE" height="5" style="stroke: #A80036; stroke-width: 1.5;" width="10" x="295.5" y="318"/><rect fill="#FEFECE" height="5" style="stroke: #A80036; stroke-width: 1.5;" width="10" x="295.5" y="339.4883"/><text fill="#000000" font-family="sans-serif" font-size="14" lengthAdjust="spacingAndGlyphs" textLength="149" x="310.5" y="336.5352">data renderer plugins</text><!--entity data parsing plugins--><rect fill="#FEFECE" filter="url(#fgcilprrn6h3p)" height="36.4883" style="stroke: #A80036; stroke-width: 1.5;" width="161" x="104.5" y="313"/><rect fill="#FEFECE" height="5" style="stroke: #A80036; stroke-width: 1.5;" width="10" x="99.5" y="318"/><rect fill="#FEFECE" height="5" style="stroke: #A80036; stroke-width: 1.5;" width="10" x="99.5" y="339.4883"/><text fill="#000000" font-family="sans-serif" font-size="14" lengthAdjust="spacingAndGlyphs" textLength="141" x="114.5" y="336.5352">data parsing plugins</text><!--entity pyexcel-io public api--><rect fill="#FEFECE" filter="url(#fgcilprrn6h3p)" height="36.4883" style="stroke: #A80036; stroke-width: 1.5;" width="164" x="177" y="409"/><rect fill="#FEFECE" height="5" style="stroke: #A80036; stroke-width: 1.5;" width="10" x="172" y="414"/><rect fill="#FEFECE" height="5" style="stroke: #A80036; stroke-width: 1.5;" width="10" x="172" y="435.4883"/><text fill="#000000" font-family="sans-serif" font-size="14" lengthAdjust="spacingAndGlyphs" textLength="144" x="187" y="432.5352">pyexcel-io public api</text><!--entity pyexcel-io plugin interfaces--><rect fill="#FEFECE" filter="url(#fgcilprrn6h3p)" height="36.4883" style="stroke: #A80036; stroke-width: 1.5;" width="212" x="153" y="513.5"/><rect fill="#FEFECE" height="5" style="stroke: #A80036; stroke-width: 1.5;" width="10" x="148" y="518.5"/><rect fill="#FEFECE" height="5" style="stroke: #A80036; stroke-width: 1.5;" width="10" x="148" y="539.9883"/><text fill="#000000" font-family="sans-serif" font-size="14" lengthAdjust="spacingAndGlyphs" textLength="192" x="163" y="537.0352">pyexcel-io plugin interfaces</text><!--entity csv, csvz, tsv, tsvz--><rect fill="#FEFECE" filter="url(#fgcilprrn6h3p)" height="36.4883" style="stroke: #A80036; stroke-width: 1.5;" width="140" x="30" y="618"/><rect fill="#FEFECE" height="5" style="stroke: #A80036; stroke-width: 1.5;" width="10" x="25" y="623"/><rect fill="#FEFECE" height="5" style="stroke: #A80036; stroke-width: 1.5;" width="10" x="25" y="644.4883"/><text fill="#000000" font-family="sans-serif" font-size="14" lengthAdjust="spacingAndGlyphs" textLength="120" x="40" y="641.5352">csv, csvz, tsv, tsvz</text><!--entity django, sqlalchemy--><rect fill="#FEFECE" filter="url(#fgcilprrn6h3p)" height="36.4883" style="stroke: #A80036; stroke-width: 1.5;" width="152" x="205" y="618"/><rect fill="#FEFECE" height="5" style="stroke: #A80036; stroke-width: 1.5;" width="10" x="200" y="623"/><rect fill="#FEFECE" height="5" style="stroke: #A80036; stroke-width: 1.5;" width="10" x="200" y="644.4883"/><text fill="#000000" font-family="sans-serif" font-size="14" lengthAdjust="spacingAndGlyphs" textLength="132" x="215" y="641.5352">django, sqlalchemy</text><!--entity pyexcel-ods--><rect fill="#FEFECE" filter="url(#fgcilprrn6h3p)" height="36.4883" style="stroke: #A80036; stroke-width: 1.5;" width="105" x="538.5" y="618"/><rect fill="#FEFECE" height="5" style="stroke: #A80036; stroke-width: 1.5;" width="10" x="533.5" y="623"/><rect fill="#FEFECE" height="5" style="stroke: #A80036; stroke-width: 1.5;" width="10" x="533.5" y="644.4883"/><text fill="#000000" font-family="sans-serif" font-size="14" lengthAdjust="spacingAndGlyphs" textLength="85" x="548.5" y="641.5352">pyexcel-ods</text><!--entity pyexcel-ods3--><rect fill="#FEFECE" filter="url(#fgcilprrn6h3p)" height="36.4883" style="stroke: #A80036; stroke-width: 1.5;" width="114" x="679" y="618"/><rect fill="#FEFECE" height="5" style="stroke: #A80036; stroke-width: 1.5;" width="10" x="674" y="623"/><rect fill="#FEFECE" height="5" style="stroke: #A80036; stroke-width: 1.5;" width="10" x="674" y="644.4883"/><text fill="#000000" font-family="sans-serif" font-size="14" lengthAdjust="spacingAndGlyphs" textLength="94" x="689" y="641.5352">pyexcel-ods3</text><!--entity pyexcel-odsr--><rect fill="#FEFECE" filter="url(#fgcilprrn6h3p)" height="36.4883" style="stroke: #A80036; stroke-width: 1.5;" width="111" x="392.5" y="618"/><rect fill="#FEFECE" height="5" style="stroke: #A80036; stroke-width: 1.5;" width="10" x="387.5" y="623"/><rect fill="#FEFECE" height="5" style="stroke: #A80036; stroke-width: 1.5;" width="10" x="387.5" y="644.4883"/><text fill="#000000" font-family="sans-serif" font-size="14" lengthAdjust="spacingAndGlyphs" textLength="91" x="402.5" y="641.5352">pyexcel-odsr</text><!--entity pyexcel-xls--><rect fill="#FEFECE" filter="url(#fgcilprrn6h3p)" height="36.4883" style="stroke: #A80036; stroke-width: 1.5;" width="100" x="555" y="409"/><rect fill="#FEFECE" height="5" style="stroke: #A80036; stroke-width: 1.5;" width="10" x="550" y="414"/><rect fill="#FEFECE" height="5" style="stroke: #A80036; stroke-width: 1.5;" width="10" x="550" y="435.4883"/><text fill="#000000" font-family="sans-serif" font-size="14" lengthAdjust="spacingAndGlyphs" textLength="80" x="565" y="432.5352">pyexcel-xls</text><!--entity pyexcel-xlsx--><rect fill="#FEFECE" filter="url(#fgcilprrn6h3p)" height="36.4883" style="stroke: #A80036; stroke-width: 1.5;" width="109" x="410.5" y="409"/><rect fill="#FEFECE" height="5" style="stroke: #A80036; stroke-width: 1.5;" width="10" x="405.5" y="414"/><rect fill="#FEFECE" height="5" style="stroke: #A80036; stroke-width: 1.5;" width="10" x="405.5" y="435.4883"/><text fill="#000000" font-family="sans-serif" font-size="14" lengthAdjust="spacingAndGlyphs" textLength="89" x="420.5" y="432.5352">pyexcel-xlsx</text><!--entity pyexcel-xlsxw--><rect fill="#FEFECE" filter="url(#fgcilprrn6h3p)" height="36.4883" style="stroke: #A80036; stroke-width: 1.5;" width="120" x="841" y="409"/><rect fill="#FEFECE" height="5" style="stroke: #A80036; stroke-width: 1.5;" width="10" x="836" y="414"/><rect fill="#FEFECE" height="5" style="stroke: #A80036; stroke-width: 1.5;" width="10" x="836" y="435.4883"/><text fill="#000000" font-family="sans-serif" font-size="14" lengthAdjust="spacingAndGlyphs" textLength="100" x="851" y="432.5352">pyexcel-xlsxw</text><!--entity pyexcel-libxlsxw--><rect fill="#FEFECE" filter="url(#fgcilprrn6h3p)" height="36.4883" style="stroke: #A80036; stroke-width: 1.5;" width="137" x="996.5" y="409"/><rect fill="#FEFECE" height="5" style="stroke: #A80036; stroke-width: 1.5;" width="10" x="991.5" y="414"/><rect fill="#FEFECE" height="5" style="stroke: #A80036; stroke-width: 1.5;" width="10" x="991.5" y="435.4883"/><text fill="#000000" font-family="sans-serif" font-size="14" lengthAdjust="spacingAndGlyphs" textLength="117" x="1006.5" y="432.5352">pyexcel-libxlsxw</text><!--entity pyexcel-xlsxr--><rect fill="#FEFECE" filter="url(#fgcilprrn6h3p)" height="36.4883" style="stroke: #A80036; stroke-width: 1.5;" width="115" x="690.5" y="409"/><rect fill="#FEFECE" height="5" style="stroke: #A80036; stroke-width: 1.5;" width="10" x="685.5" y="414"/><rect fill="#FEFECE" height="5" style="stroke: #A80036; stroke-width: 1.5;" width="10" x="685.5" y="435.4883"/><text fill="#000000" font-family="sans-serif" font-size="14" lengthAdjust="spacingAndGlyphs" textLength="95" x="700.5" y="432.5352">pyexcel-xlsxr</text><!--entity tabulate--><rect fill="#FFFFFF" filter="url(#fgcilprrn6h3p)" height="52.9766" style="stroke: #A80036; stroke-width: 1.5;" width="117" x="130.5" y="8"/><rect fill="#FFFFFF" height="5" style="stroke: #A80036; stroke-width: 1.5;" width="10" x="125.5" y="13"/><rect fill="#FFFFFF" height="5" style="stroke: #A80036; stroke-width: 1.5;" width="10" x="125.5" y="50.9766"/><text fill="#000000" font-family="sans-serif" font-size="14" font-style="italic" lengthAdjust="spacingAndGlyphs" textLength="97" x="140.5" y="31.5352">«dependency»</text><text fill="#000000" font-family="sans-serif" font-size="14" lengthAdjust="spacingAndGlyphs" textLength="56" x="161" y="48.0234">tabulate</text><!--entity pygal--><rect fill="#FFFFFF" filter="url(#fgcilprrn6h3p)" height="52.9766" style="stroke: #A80036; stroke-width: 1.5;" width="117" x="682.5" y="8"/><rect fill="#FFFFFF" height="5" style="stroke: #A80036; stroke-width: 1.5;" width="10" x="677.5" y="13"/><rect fill="#FFFFFF" height="5" style="stroke: #A80036; stroke-width: 1.5;" width="10" x="677.5" y="50.9766"/><text fill="#000000" font-family="sans-serif" font-size="14" font-style="italic" lengthAdjust="spacingAndGlyphs" textLength="97" x="692.5" y="31.5352">«dependency»</text><text fill="#000000" font-family="sans-serif" font-size="14" lengthAdjust="spacingAndGlyphs" textLength="37" x="722.5" y="48.0234">pygal</text><!--entity handsontable--><rect fill="#FFFFFF" filter="url(#fgcilprrn6h3p)" height="52.9766" style="stroke: #A80036; stroke-width: 1.5;" width="117" x="501.5" y="8"/><rect fill="#FFFFFF" height="5" style="stroke: #A80036; stroke-width: 1.5;" width="10" x="496.5" y="13"/><rect fill="#FFFFFF" height="5" style="stroke: #A80036; stroke-width: 1.5;" width="10" x="496.5" y="50.9766"/><text fill="#000000" font-family="sans-serif" font-size="14" font-style="italic" lengthAdjust="spacingAndGlyphs" textLength="97" x="511.5" y="31.5352">«dependency»</text><text fill="#000000" font-family="sans-serif" font-size="14" lengthAdjust="spacingAndGlyphs" textLength="94" x="513" y="48.0234">handsontable</text><!--entity xlrd--><rect fill="#FFFFFF" filter="url(#fgcilprrn6h3p)" height="52.9766" style="stroke: #A80036; stroke-width: 1.5;" width="117" x="552.5" y="505"/><rect fill="#FFFFFF" height="5" style="stroke: #A80036; stroke-width: 1.5;" width="10" x="547.5" y="510"/><rect fill="#FFFFFF" height="5" style="stroke: #A80036; stroke-width: 1.5;" width="10" x="547.5" y="547.9766"/><text fill="#000000" font-family="sans-serif" font-size="14" font-style="italic" lengthAdjust="spacingAndGlyphs" textLength="97" x="562.5" y="528.5352">«dependency»</text><text fill="#000000" font-family="sans-serif" font-size="14" lengthAdjust="spacingAndGlyphs" textLength="28" x="597" y="545.0234">xlrd</text><!--entity xlwt--><rect fill="#FFFFFF" filter="url(#fgcilprrn6h3p)" height="52.9766" style="stroke: #A80036; stroke-width: 1.5;" width="117" x="704.5" y="505"/><rect fill="#FFFFFF" height="5" style="stroke: #A80036; stroke-width: 1.5;" width="10" x="699.5" y="510"/><rect fill="#FFFFFF" height="5" style="stroke: #A80036; stroke-width: 1.5;" width="10" x="699.5" y="547.9766"/><text fill="#000000" font-family="sans-serif" font-size="14" font-style="italic" lengthAdjust="spacingAndGlyphs" textLength="97" x="714.5" y="528.5352">«dependency»</text><text fill="#000000" font-family="sans-serif" font-size="14" lengthAdjust="spacingAndGlyphs" textLength="29" x="748.5" y="545.0234">xlwt</text><!--entity openpyxl--><rect fill="#FFFFFF" filter="url(#fgcilprrn6h3p)" height="52.9766" style="stroke: #A80036; stroke-width: 1.5;" width="117" x="400.5" y="505"/><rect fill="#FFFFFF" height="5" style="stroke: #A80036; stroke-width: 1.5;" width="10" x="395.5" y="510"/><rect fill="#FFFFFF" height="5" style="stroke: #A80036; stroke-width: 1.5;" width="10" x="395.5" y="547.9766"/><text fill="#000000" font-family="sans-serif" font-size="14" font-style="italic" lengthAdjust="spacingAndGlyphs" textLength="97" x="410.5" y="528.5352">«dependency»</text><text fill="#000000" font-family="sans-serif" font-size="14" lengthAdjust="spacingAndGlyphs" textLength="64" x="427" y="545.0234">openpyxl</text><!--entity xlsxwriter--><rect fill="#FFFFFF" filter="url(#fgcilprrn6h3p)" height="52.9766" style="stroke: #A80036; stroke-width: 1.5;" width="117" x="1008.5" y="505"/><rect fill="#FFFFFF" height="5" style="stroke: #A80036; stroke-width: 1.5;" width="10" x="1003.5" y="510"/><rect fill="#FFFFFF" height="5" style="stroke: #A80036; stroke-width: 1.5;" width="10" x="1003.5" y="547.9766"/><text fill="#000000" font-family="sans-serif" font-size="14" font-style="italic" lengthAdjust="spacingAndGlyphs" textLength="97" x="1018.5" y="528.5352">«dependency»</text><text fill="#000000" font-family="sans-serif" font-size="14" lengthAdjust="spacingAndGlyphs" textLength="69" x="1032.5" y="545.0234">xlsxwriter</text><!--entity ezodf--><rect fill="#FFFFFF" filter="url(#fgcilprrn6h3p)" height="52.9766" style="stroke: #A80036; stroke-width: 1.5;" width="117" x="681.5" y="775"/><rect fill="#FFFFFF" height="5" style="stroke: #A80036; stroke-width: 1.5;" width="10" x="676.5" y="780"/><rect fill="#FFFFFF" height="5" style="stroke: #A80036; stroke-width: 1.5;" width="10" x="676.5" y="817.9766"/><text fill="#000000" font-family="sans-serif" font-size="14" font-style="italic" lengthAdjust="spacingAndGlyphs" textLength="97" x="691.5" y="798.5352">«dependency»</text><text fill="#000000" font-family="sans-serif" font-size="14" lengthAdjust="spacingAndGlyphs" textLength="39" x="720.5" y="815.0234">ezodf</text><!--entity odfpy--><rect fill="#FFFFFF" filter="url(#fgcilprrn6h3p)" height="52.9766" style="stroke: #A80036; stroke-width: 1.5;" width="117" x="529.5" y="775"/><rect fill="#FFFFFF" height="5" style="stroke: #A80036; stroke-width: 1.5;" width="10" x="524.5" y="780"/><rect fill="#FFFFFF" height="5" style="stroke: #A80036; stroke-width: 1.5;" width="10" x="524.5" y="817.9766"/><text fill="#000000" font-family="sans-serif" font-size="14" font-style="italic" lengthAdjust="spacingAndGlyphs" textLength="97" x="539.5" y="798.5352">«dependency»</text><text fill="#000000" font-family="sans-serif" font-size="14" lengthAdjust="spacingAndGlyphs" textLength="39" x="568.5" y="815.0234">odfpy</text><!--entity lxml--><rect fill="#FFFFFF" filter="url(#fgcilprrn6h3p)" height="52.9766" style="stroke: #A80036; stroke-width: 1.5;" width="117" x="856.5" y="505"/><rect fill="#FFFFFF" height="5" style="stroke: #A80036; stroke-width: 1.5;" width="10" x="851.5" y="510"/><rect fill="#FFFFFF" height="5" style="stroke: #A80036; stroke-width: 1.5;" width="10" x="851.5" y="547.9766"/><text fill="#000000" font-family="sans-serif" font-size="14" font-style="italic" lengthAdjust="spacingAndGlyphs" textLength="97" x="866.5" y="528.5352">«dependency»</text><text fill="#000000" font-family="sans-serif" font-size="14" lengthAdjust="spacingAndGlyphs" textLength="30" x="900" y="545.0234">lxml</text><!--entity libxlsxwpy--><rect fill="#FFFFFF" filter="url(#fgcilprrn6h3p)" height="52.9766" style="stroke: #A80036; stroke-width: 1.5;" width="117" x="1160.5" y="505"/><rect fill="#FFFFFF" height="5" style="stroke: #A80036; stroke-width: 1.5;" width="10" x="1155.5" y="510"/><rect fill="#FFFFFF" height="5" style="stroke: #A80036; stroke-width: 1.5;" width="10" x="1155.5" y="547.9766"/><text fill="#000000" font-family="sans-serif" font-size="14" font-style="italic" lengthAdjust="spacingAndGlyphs" textLength="97" x="1170.5" y="528.5352">«dependency»</text><text fill="#000000" font-family="sans-serif" font-size="14" lengthAdjust="spacingAndGlyphs" textLength="73" x="1182.5" y="545.0234">libxlsxwpy</text><!--entity libxlsx--><rect fill="#FFFFFF" filter="url(#fgcilprrn6h3p)" height="52.9766" style="stroke: #A80036; stroke-width: 1.5;" width="117" x="1312.5" y="505"/><rect fill="#FFFFFF" height="5" style="stroke: #A80036; stroke-width: 1.5;" width="10" x="1307.5" y="510"/><rect fill="#FFFFFF" height="5" style="stroke: #A80036; stroke-width: 1.5;" width="10" x="1307.5" y="547.9766"/><text fill="#000000" font-family="sans-serif" font-size="14" font-style="italic" lengthAdjust="spacingAndGlyphs" textLength="97" x="1322.5" y="528.5352">«dependency»</text><text fill="#000000" font-family="sans-serif" font-size="14" lengthAdjust="spacingAndGlyphs" textLength="46" x="1348" y="545.0234">libxlsx</text><!--entity pyexcel-text--><rect fill="#FEFECE" filter="url(#fgcilprrn6h3p)" height="36.4883" style="stroke: #A80036; stroke-width: 1.5;" width="107" x="135.5" y="121"/><rect fill="#FEFECE" height="5" style="stroke: #A80036; stroke-width: 1.5;" width="10" x="130.5" y="126"/><rect fill="#FEFECE" height="5" style="stroke: #A80036; stroke-width: 1.5;" width="10" x="130.5" y="147.4883"/><text fill="#000000" font-family="sans-serif" font-size="14" lengthAdjust="spacingAndGlyphs" textLength="87" x="145.5" y="144.5352">pyexcel-text</text><!--entity pyexcel-pygal--><rect fill="#FEFECE" filter="url(#fgcilprrn6h3p)" height="36.4883" style="stroke: #A80036; stroke-width: 1.5;" width="117" x="682.5" y="121"/><rect fill="#FEFECE" height="5" style="stroke: #A80036; stroke-width: 1.5;" width="10" x="677.5" y="126"/><rect fill="#FEFECE" height="5" style="stroke: #A80036; stroke-width: 1.5;" width="10" x="677.5" y="147.4883"/><text fill="#000000" font-family="sans-serif" font-size="14" lengthAdjust="spacingAndGlyphs" textLength="97" x="692.5" y="144.5352">pyexcel-pygal</text><!--entity pyexcel-handsontable--><rect fill="#FEFECE" filter="url(#fgcilprrn6h3p)" height="36.4883" style="stroke: #A80036; stroke-width: 1.5;" width="174" x="473" y="121"/><rect fill="#FEFECE" height="5" style="stroke: #A80036; stroke-width: 1.5;" width="10" x="468" y="126"/><rect fill="#FEFECE" height="5" style="stroke: #A80036; stroke-width: 1.5;" width="10" x="468" y="147.4883"/><text fill="#000000" font-family="sans-serif" font-size="14" lengthAdjust="spacingAndGlyphs" textLength="154" x="483" y="144.5352">pyexcel-handsontable</text><!--entity sphinxcontrib-excel--><rect fill="#FEFECE" filter="url(#fgcilprrn6h3p)" height="36.4883" style="stroke: #A80036; stroke-width: 1.5;" width="160" x="278" y="121"/><rect fill="#FEFECE" height="5" style="stroke: #A80036; stroke-width: 1.5;" width="10" x="273" y="126"/><rect fill="#FEFECE" height="5" style="stroke: #A80036; stroke-width: 1.5;" width="10" x="273" y="147.4883"/><text fill="#000000" font-family="sans-serif" font-size="14" lengthAdjust="spacingAndGlyphs" textLength="140" x="288" y="144.5352">sphinxcontrib-excel</text><!--link pyexcel public api to pyexcel internal api--><path d="M239.5156,235 C249.4935,235 259.4713,235 269.4492,235 " fill="none" id="pyexcel public api-pyexcel internal api" style="stroke: #A80036; stroke-width: 1.0;"/><polygon fill="#A80036" points="274.667,235,265.667,231,269.667,235,265.667,239,274.667,235" style="stroke: #A80036; stroke-width: 1.0;"/><!--link pyexcel internal api to pyexcel plugin interfaces--><path d="M429.1875,235 C439.1956,235 449.2038,235 459.2119,235 " fill="none" id="pyexcel internal api-pyexcel plugin interfaces" style="stroke: #A80036; stroke-width: 1.0;"/><polygon fill="#A80036" points="464.4456,235,455.4456,231,459.4456,235,455.4456,239,464.4456,235" style="stroke: #A80036; stroke-width: 1.0;"/><!--link pyexcel-text to pyexcel plugin interfaces--><path d="M247.6598,154.022 C252.1654,155.0665 256.6507,156.0717 261,157 C343.1082,174.5252 366.2494,167.0169 447,190 C471.9811,197.1101 499.043,207.7761 520.4193,216.9396 " fill="none" id="pyexcel-text-pyexcel plugin interfaces" style="stroke: #A80036; stroke-width: 1.0; stroke-dasharray: 7.0,7.0;"/><polygon fill="#A80036" points="242.7683,152.875,250.6173,158.8242,247.6362,154.0166,252.4439,151.0355,242.7683,152.875" style="stroke: #A80036; stroke-width: 1.0;"/><!--link pyexcel-pygal to pyexcel plugin interfaces--><path d="M702.3173,159.5168 C670.2148,176.5435 624.9931,200.5285 594.1993,216.8612 " fill="none" id="pyexcel-pygal-pyexcel plugin interfaces" style="stroke: #A80036; stroke-width: 1.0; stroke-dasharray: 7.0,7.0;"/><polygon fill="#A80036" points="706.9553,157.0569,697.1302,157.7403,702.5382,159.3998,700.8787,164.8077,706.9553,157.0569" style="stroke: #A80036; stroke-width: 1.0;"/><!--link pyexcel-handsontable to pyexcel plugin interfaces--><path d="M560,162.0611 C560,178.8106 560,201.1694 560,216.6977 " fill="none" id="pyexcel-handsontable-pyexcel plugin interfaces" style="stroke: #A80036; stroke-width: 1.0; stroke-dasharray: 7.0,7.0;"/><polygon fill="#A80036" points="560,157.0569,556,166.0569,560,162.0569,564,166.0569,560,157.0569" style="stroke: #A80036; stroke-width: 1.0;"/><!--link pyexcel plugin interfaces to data source plugins--><path d="M564.138,253.0569 C567.68,268.5126 572.8023,290.8647 576.6542,307.6731 " fill="none" id="pyexcel plugin interfaces-data source plugins" style="stroke: #A80036; stroke-width: 1.0; stroke-dasharray: 7.0,7.0;"/><polygon fill="#A80036" points="577.8057,312.6977,579.694,303.0316,576.6887,307.8241,571.8962,304.8187,577.8057,312.6977" style="stroke: #A80036; stroke-width: 1.0;"/><!--link pyexcel plugin interfaces to data renderer plugins--><path d="M527.0838,253.0569 C497.3576,269.3638 453.6371,293.3476 422.5564,310.3976 " fill="none" id="pyexcel plugin interfaces-data renderer plugins" style="stroke: #A80036; stroke-width: 1.0; stroke-dasharray: 7.0,7.0;"/><polygon fill="#A80036" points="418.0656,312.8612,427.8801,312.0394,422.4493,310.4564,424.0324,305.0255,418.0656,312.8612" style="stroke: #A80036; stroke-width: 1.0;"/><!--link pyexcel plugin interfaces to data parsing plugins--><path d="M464.3802,251.4027 C391.3544,264.1324 300.3671,280.5082 283,286 C262.9306,292.3464 241.5873,301.7978 223.9599,310.403 " fill="none" id="pyexcel plugin interfaces-data parsing plugins" style="stroke: #A80036; stroke-width: 1.0; stroke-dasharray: 7.0,7.0;"/><polygon fill="#A80036" points="219.0908,312.8043,228.9318,312.4109,223.5751,310.5927,225.3933,305.236,219.0908,312.8043" style="stroke: #A80036; stroke-width: 1.0;"/><!--link data renderer plugins to pyexcel-io public api--><path d="M361.3004,349.0569 C340.2277,365.1122 309.3878,388.6093 287.083,405.6035 " fill="none" id="data renderer plugins-pyexcel-io public api" style="stroke: #A80036; stroke-width: 1.0;"/><polygon fill="#A80036" points="283.0218,408.6977,292.6049,406.4253,286.999,405.6676,287.7567,400.0617,283.0218,408.6977" style="stroke: #A80036; stroke-width: 1.0;"/><!--link data parsing plugins to pyexcel-io public api--><path d="M198.9188,349.0569 C211.0381,364.7791 228.6581,387.6375 241.6851,404.5375 " fill="none" id="data parsing plugins-pyexcel-io public api" style="stroke: #A80036; stroke-width: 1.0;"/><polygon fill="#A80036" points="244.892,408.6977,242.5654,399.1276,241.8394,404.7377,236.2293,404.0117,244.892,408.6977" style="stroke: #A80036; stroke-width: 1.0;"/><!--link pyexcel-io public api to pyexcel-io plugin interfaces--><path d="M259,445.2025 C259,462.6276 259,489.0009 259,508.0045 " fill="none" id="pyexcel-io public api-pyexcel-io plugin interfaces" style="stroke: #A80036; stroke-width: 1.0;"/><polygon fill="#A80036" points="259,513.1555,263,504.1555,259,508.1555,255,504.1555,259,513.1555" style="stroke: #A80036; stroke-width: 1.0;"/><!--link pyexcel-io plugin interfaces to csv, csvz, tsv, tsvz--><path d="M231.3043,549.7025 C203.5737,567.928 160.9485,595.9427 131.8381,615.0749 " fill="none" id="pyexcel-io plugin interfaces-csv, csvz, tsv, tsvz" style="stroke: #A80036; stroke-width: 1.0; stroke-dasharray: 7.0,7.0;"/><polygon fill="#A80036" points="127.6446,617.8311,137.3626,616.2308,131.823,615.085,132.9688,609.5454,127.6446,617.8311" style="stroke: #A80036; stroke-width: 1.0;"/><!--link pyexcel-io plugin interfaces to django, sqlalchemy--><path d="M262.8321,549.7025 C266.5005,567.1276 272.0528,593.5009 276.0536,612.5045 " fill="none" id="pyexcel-io plugin interfaces-django, sqlalchemy" style="stroke: #A80036; stroke-width: 1.0; stroke-dasharray: 7.0,7.0;"/><polygon fill="#A80036" points="277.138,617.6555,279.1982,608.0245,276.108,612.7627,271.3698,609.6725,277.138,617.6555" style="stroke: #A80036; stroke-width: 1.0;"/><!--link pyexcel-xls to pyexcel-io plugin interfaces--><path d="M554.5523,446.8652 C548.6622,449.013 542.7172,451.1041 537,453 C467.144,476.1654 386.0242,498.5677 329.5095,513.4694 " fill="none" id="pyexcel-xls-pyexcel-io plugin interfaces" style="stroke: #A80036; stroke-width: 1.0; stroke-dasharray: 7.0,7.0;"/><polygon fill="#A80036" points="559.4807,445.0507,549.6529,444.4064,554.7886,446.7781,552.4168,451.9138,559.4807,445.0507" style="stroke: #A80036; stroke-width: 1.0;"/><!--link pyexcel-xlsx to pyexcel-io plugin interfaces--><path d="M424.6055,447.4914 C386.8509,466.6436 331.0145,494.9683 294.8163,513.3311 " fill="none" id="pyexcel-xlsx-pyexcel-io plugin interfaces" style="stroke: #A80036; stroke-width: 1.0; stroke-dasharray: 7.0,7.0;"/><polygon fill="#A80036" points="429.1175,445.2025,419.2816,445.7072,424.6585,447.4646,422.901,452.8416,429.1175,445.2025" style="stroke: #A80036; stroke-width: 1.0;"/><!--link pyexcel-xlsxr to pyexcel-io plugin interfaces--><path d="M694.5669,446.6599 C687.37,448.9729 680.0417,451.1602 673,453 C546.3084,486.1016 511.4885,479.7579 383,505 C369.6074,507.631 355.4286,510.542 341.63,513.443 " fill="none" id="pyexcel-xlsxr-pyexcel-io plugin interfaces" style="stroke: #A80036; stroke-width: 1.0; stroke-dasharray: 7.0,7.0;"/><polygon fill="#A80036" points="699.5232,445.0411,689.7261,444.0329,694.7703,446.5934,692.2098,451.6376,699.5232,445.0411" style="stroke: #A80036; stroke-width: 1.0;"/><!--link pyexcel-ods to pyexcel-io plugin interfaces--><path d="M563.4362,615.1099 C551.0222,606.5577 535.8414,597.2281 521,591 C512.5323,587.4466 415.3133,565.744 341.7539,549.5692 " fill="none" id="pyexcel-ods-pyexcel-io plugin interfaces" style="stroke: #A80036; stroke-width: 1.0; stroke-dasharray: 7.0,7.0;"/><polygon fill="#A80036" points="567.5357,617.9748,562.4501,609.5406,563.4374,615.1106,557.8673,616.0979,567.5357,617.9748" style="stroke: #A80036; stroke-width: 1.0;"/><!--link pyexcel-io plugin interfaces to pyexcel-ods3--><path d="M338.1723,549.5588 C353.0216,552.6217 368.4494,555.5869 383,558 C505.7465,578.3567 543.2618,550.7657 661,591 C677.3952,596.6027 694.0747,606.1506 707.528,615.0138 " fill="none" id="pyexcel-io plugin interfaces-pyexcel-ods3" style="stroke: #A80036; stroke-width: 1.0; stroke-dasharray: 7.0,7.0;"/><polygon fill="#A80036" points="711.9617,617.9867,706.7142,609.6522,707.8088,615.2021,702.2589,616.2968,711.9617,617.9867" style="stroke: #A80036; stroke-width: 1.0;"/><!--link pyexcel-io plugin interfaces to pyexcel-xlsxw--><path d="M338.1713,513.4351 C353.0207,510.3727 368.4488,507.4094 383,505 C577.2714,472.8329 630.8165,495.9141 823,453 C830.8449,451.2482 839.0128,449.0091 846.9818,446.5817 " fill="none" id="pyexcel-io plugin interfaces-pyexcel-xlsxw" style="stroke: #A80036; stroke-width: 1.0; stroke-dasharray: 7.0,7.0;"/><polygon fill="#A80036" points="851.9133,445.0487,842.1316,443.9007,847.1387,446.533,844.5064,451.5401,851.9133,445.0487" style="stroke: #A80036; stroke-width: 1.0;"/><!--link pyexcel-io plugin interfaces to pyexcel-odsr--><path d="M294.9778,549.5863 C317.562,561.1095 347.1939,576.5405 373,591 C386.6869,598.669 401.5425,607.4776 414.394,615.2568 " fill="none" id="pyexcel-io plugin interfaces-pyexcel-odsr" style="stroke: #A80036; stroke-width: 1.0; stroke-dasharray: 7.0,7.0;"/><polygon fill="#A80036" points="418.671,617.8524,413.0524,609.7635,414.3966,615.2583,408.9018,616.6025,418.671,617.8524" style="stroke: #A80036; stroke-width: 1.0;"/><!--link tabulate to pyexcel-text--><path d="M189,61.1401 C189,79.8859 189,104.4746 189,120.9587 " fill="none" id="tabulate-pyexcel-text" style="stroke: #A80036; stroke-width: 1.0;"/><!--link pygal to pyexcel-pygal--><path d="M741,61.1401 C741,79.8859 741,104.4746 741,120.9587 " fill="none" id="pygal-pyexcel-pygal" style="stroke: #A80036; stroke-width: 1.0;"/><!--link handsontable to pyexcel-handsontable--><path d="M560,61.1401 C560,79.8859 560,104.4746 560,120.9587 " fill="none" id="handsontable-pyexcel-handsontable" style="stroke: #A80036; stroke-width: 1.0;"/><!--link pyexcel-xls to xlrd--><path d="M606.0451,445.2025 C606.9919,461.6929 608.3989,486.1973 609.4719,504.8852 " fill="none" id="pyexcel-xls-xlrd" style="stroke: #A80036; stroke-width: 1.0;"/><!--link pyexcel-xls to xlwt--><path d="M632.5215,445.2025 C657.4543,461.6929 694.504,486.1973 722.7595,504.8852 " fill="none" id="pyexcel-xls-xlwt" style="stroke: #A80036; stroke-width: 1.0;"/><!--link pyexcel-xlsx to openpyxl--><path d="M463.9549,445.2025 C463.0081,461.6929 461.6011,486.1973 460.5281,504.8852 " fill="none" id="pyexcel-xlsx-openpyxl" style="stroke: #A80036; stroke-width: 1.0;"/><!--link pyexcel-xlsxw to xlsxwriter--><path d="M929.915,445.2025 C956.1102,461.6929 995.0359,486.1973 1024.722,504.8852 " fill="none" id="pyexcel-xlsxw-xlsxwriter" style="stroke: #A80036; stroke-width: 1.0;"/><!--link pyexcel-ods3 to ezodf--><path d="M736.4357,654.0265 C737.1403,683.1809 738.5337,740.8327 739.3541,774.7745 " fill="none" id="pyexcel-ods3-ezodf" style="stroke: #A80036; stroke-width: 1.0;"/><!--link pyexcel-ods to odfpy--><path d="M590.6732,654.0265 C590.1448,683.1809 589.0997,740.8327 588.4844,774.7745 " fill="none" id="pyexcel-ods-odfpy" style="stroke: #A80036; stroke-width: 1.0;"/><!--link pyexcel-xlsxr to lxml--><path d="M777.0892,445.2025 C803.4422,461.6929 842.6023,486.1973 872.4673,504.8852 " fill="none" id="pyexcel-xlsxr-lxml" style="stroke: #A80036; stroke-width: 1.0;"/><!--link sphinxcontrib-excel to pyexcel-handsontable--><path d="M438.0898,139 C447.9576,139 457.8253,139 467.6931,139 " fill="none" id="sphinxcontrib-excel-pyexcel-handsontable" style="stroke: #A80036; stroke-width: 1.0;"/><polygon fill="#A80036" points="472.8533,139,463.8533,135,467.8533,139,463.8533,143,472.8533,139" style="stroke: #A80036; stroke-width: 1.0;"/><!--link pyexcel-libxlsxw to libxlsxwpy--><path d="M1091.8248,445.2025 C1116.1263,461.6929 1152.2381,486.1973 1179.7782,504.8852 " fill="none" id="pyexcel-libxlsxw-libxlsxwpy" style="stroke: #A80036; stroke-width: 1.0;"/><!--link libxlsxwpy to libxlsx--><path d="M1277.7813,531.5 C1289.3122,531.5 1300.8432,531.5 1312.3741,531.5 " fill="none" id="libxlsxwpy-libxlsx" style="stroke: #A80036; stroke-width: 1.0;"/><!--
@startuml

package "pyexcel" {
[pyexcel public api]
[pyexcel internal api]
[pyexcel plugin interfaces]
folder "plugins" {
  [data source plugins]
  [data renderer plugins]
  [data parsing plugins]
 }
}

package "pyexcel-io" {
[pyexcel-io public api]
[pyexcel-io plugin interfaces]
folder "io plugins" {
  [csv, csvz, tsv, tsvz]
  [django, sqlalchemy]
 }
}

cloud "ods" {
[pyexcel-ods]
[pyexcel-ods3]
[pyexcel-odsr]
}

cloud "xls, xlsx" {
[pyexcel-xls]
[pyexcel-xlsx]
[pyexcel-xlsxw]
[pyexcel-libxlsxw]
[pyexcel-xlsxr]
}

[tabulate] <<dependency>>
[pygal] <<dependency>>
[handsontable] <<dependency>>
[xlrd] <<dependency>>
[xlwt] <<dependency>>
[openpyxl] <<dependency>>
[xlsxwriter] <<dependency>>
[ezodf] <<dependency>>
[odfpy] <<dependency>>
[lxml] <<dependency>>
[libxlsxwpy] <<dependency>>
[libxlsx] <<dependency>>

[pyexcel public api] -right-> [pyexcel internal api]
[pyexcel internal api] -right-> [pyexcel plugin interfaces]
[pyexcel plugin interfaces] .up.> [pyexcel-text]
[pyexcel plugin interfaces] .up.> [pyexcel-pygal]
[pyexcel plugin interfaces] .up.> [pyexcel-handsontable]
[pyexcel plugin interfaces] ..> [data source plugins]
[pyexcel plugin interfaces] ..> [data renderer plugins]
[pyexcel plugin interfaces] ..> [data parsing plugins]

[data renderer plugins]  -down-> [pyexcel-io public api]
[data parsing plugins] - -> [pyexcel-io public api]

[pyexcel-io public api] - -> [pyexcel-io plugin interfaces]
[pyexcel-io plugin interfaces] ..> [csv, csvz, tsv, tsvz]
[pyexcel-io plugin interfaces] ..> [django, sqlalchemy]
[pyexcel-io plugin interfaces] .up.> [pyexcel-xls]
[pyexcel-io plugin interfaces] .up.> [pyexcel-xlsx]
[pyexcel-io plugin interfaces] .up.> [pyexcel-xlsxr]
[pyexcel-io plugin interfaces] .left.> [pyexcel-ods]
[pyexcel-io plugin interfaces] .right.> [pyexcel-ods3]
[pyexcel-io plugin interfaces] .right.> [pyexcel-xlsxw]
[pyexcel-io plugin interfaces] .right.> [pyexcel-odsr]

[pyexcel-text] -up- [tabulate]
[pyexcel-pygal] -up- [pygal]
[pyexcel-handsontable] -up- [handsontable]
[pyexcel-xls] -right- [xlrd]
[pyexcel-xls] -right- [xlwt]
[pyexcel-xlsx] -right- [openpyxl]
[pyexcel-xlsxw] -down- [xlsxwriter]
[pyexcel-ods3] - - - [ezodf]
[pyexcel-ods] - - - [odfpy]
[pyexcel-xlsxr] -right- [lxml]
[sphinxcontrib-excel] -right-> [pyexcel-handsontable]
[pyexcel-libxlsxw] -right- [libxlsxwpy]
[libxlsxwpy] -right- [libxlsx]

skinparam component{

backgroundColor<<dependency>> White

}

@enduml

PlantUML version 1.2017.13(Wed May 10 17:52:33 BST 2017)
(GPL source distribution)
Java Runtime: Java(TM) SE Runtime Environment
JVM: Java HotSpot(TM) 64-Bit Server VM
Java Version: 1.8.0_131-b11
Operating System: Mac OS X
OS Version: 10.14.6
Default Encoding: UTF-8
Language: en
Country: GB
--></g></svg>