<?xml version="1.0" encoding="UTF-8" standalone="no"?><svg xmlns="http://www.w3.org/2000/svg" xmlns:xlink="http://www.w3.org/1999/xlink" contentScriptType="application/ecmascript" contentStyleType="text/css" height="853px" preserveAspectRatio="none" style="width:1340px;height:853px;" version="1.1" viewBox="0 0 1340 853" width="1340px" zoomAndPan="magnify"><defs><filter height="300%" id="fiw5od00ir7id" width="300%" x="-1" y="-1"><feGaussianBlur result="blurOut" stdDeviation="2.0"/><feColorMatrix in="blurOut" result="blurOut2" type="matrix" values="0 0 0 0 0 0 0 0 0 0 0 0 0 0 0 0 0 0 .4 0"/><feOffset dx="4.0" dy="4.0" in="blurOut2" result="blurOut3"/><feBlend in="SourceGraphic" in2="blurOut3" mode="normal"/></filter></defs><g><!--cluster pyexcel--><polygon fill="#FFFFFF" filter="url(#fiw5od00ir7id)" points="14,190,73,190,80,212.4883,602,212.4883,602,373.5,14,373.5,14,190" style="stroke: #000000; stroke-width: 2.0;"/><line style="stroke: #000000; stroke-width: 2.0;" x1="14" x2="80" y1="212.4883" y2="212.4883"/><text fill="#000000" font-family="sans-serif" font-size="14" font-weight="bold" lengthAdjust="spacingAndGlyphs" textLength="53" x="18" y="205.5352">pyexcel</text><!--cluster plugins--><polygon fill="#FFFFFF" filter="url(#fiw5od00ir7id)" points="22,294.5,82,294.5,89,316.9883,594,316.9883,594,365.5,22,365.5,22,294.5" style="stroke: #000000; stroke-width: 2.0;"/><line style="stroke: #000000; stroke-width: 2.0;" x1="22" x2="89" y1="316.9883" y2="316.9883"/><text fill="#000000" font-family="sans-serif" font-size="14" font-weight="bold" lengthAdjust="spacingAndGlyphs" textLength="54" x="26" y="310.0352">plugins</text><!--cluster pyexcel-io--><polygon fill="#FFFFFF" filter="url(#fiw5od00ir7id)" points="228,399,310,399,317,421.4883,587,421.4883,587,687,228,687,228,399" style="stroke: #000000; stroke-width: 2.0;"/><line style="stroke: #000000; stroke-width: 2.0;" x1="228" x2="317" y1="421.4883" y2="421.4883"/><text fill="#000000" font-family="sans-serif" font-size="14" font-weight="bold" lengthAdjust="spacingAndGlyphs" textLength="76" x="232" y="414.5352">pyexcel-io</text><!--cluster io plugins--><polygon fill="#FFFFFF" filter="url(#fiw5od00ir7id)" points="236,608,315,608,322,630.4883,579,630.4883,579,679,236,679,236,608" style="stroke: #000000; stroke-width: 2.0;"/><line style="stroke: #000000; stroke-width: 2.0;" x1="236" x2="322" y1="630.4883" y2="630.4883"/><text fill="#000000" font-family="sans-serif" font-size="14" font-weight="bold" lengthAdjust="spacingAndGlyphs" textLength="73" x="240" y="623.5352">io plugins</text><!--cluster ods--><path d="M601,615 C601,612 603,610 606,610 C609,610 611,612 611,615 C611,612 613,610 616,610 C619,610 621,612 621,615 C621,612 623,610 626,610 C629,610 631,612 631,615 C631,612 633,610 636,610 C639,610 641,612 641,615 C641,612 643,610 646,610 C649,610 651,612 651,615 C651,612 653,610 656,610 C659,610 661,612 661,615 C661,612 663,610 666,610 C669,610 671,612 671,615 C671,612 673,610 676,610 C679,610 681,612 681,615 C681,612 683,610 686,610 C689,610 691,612 691,615 C691,612 693,610 696,610 C699,610 701,612 701,615 C701,612 703,610 706,610 C709,610 711,612 711,615 C711,612 713,610 716,610 C719,610 721,612 721,615 C721,612 723,610 726,610 C729,610 731,612 731,615 C731,612 733,610 736,610 C739,610 741,612 741,615 C741,612 743,610 746,610 C749,610 751,612 751,615 C751,612 753,610 756,610 C759,610 761,612 761,615 C761,612 763,610 766,610 C769,610 771,612 771,615 C771,612 773,610 776,610 C779,610 781,612 781,615 C781,612 783,610 786,610 C789,610 791,612 791,615 C791,612 793,610 796,610 C799,610 801,612 801,615 C801,612 803,610 806,610 C809,610 811,612 811,615 C811,612 813,610 816,610 C819,610 821,612 821,615 C821,612 823,610 826,610 C829,610 831,612 831,615 C831,612 833,610 836,610 C839,610 841,612 841,615 C841,612 843,610 846,610 C849,610 851,612 851,615 C851,612 853,610 856,610 C859,610 861,612 861,615 C861,612 863,610 866,610 C869,610 871,612 871,615 C871,612 873,610 876,610 C879,610 881,612 881,615 C881,612 883,610 886,610 C889,610 891,612 891,615 C891,612 893,610 896,610 C899,610 901,612 901,615 C901,612 903,610 906,610 C909,610 911,612 911,615 C911,612 913,610 916,610 C919,610 921,612 921,615 C921,612 923,610 926,610 C929,610 931,612 931,615 C931,612 933,610 936,610 C939,610 941,612 941,615 C941,612 943,610 946,610 C949,610 951,612 951,615 C951,612 953,610 956,610 C959,610 961,612 961,615 C961,612 963,610 966,610 C969,610 971,612 971,615 C971,612 973,610 976,610 C979,610 981,612 981,615 C981,612 983,610 986,610 C989,610 991,612 991,615 C991,612 993,610 996,610 C999,610 1001,612 1001,615 C1001,612 1003,610 1006,610 C1009,610 1011,612 1011,615 C1014,615 1016,617 1016,620 C1016,623 1014,625 1011,625 C1014,625 1016,627 1016,630 C1016,633 1014,635 1011,635 C1014,635 1016,637 1016,640 C1016,643 1014,645 1011,645 C1014,645 1016,647 1016,650 C1016,653 1014,655 1011,655 C1014,655 1016,657 1016,660 C1016,663 1014,665 1011,665 C1014,665 1016,667 1016,670 C1016,673 1014,675 1011,675 C1011,678 1008,680 1006,680 C1003,680 1001,678 1001,675 C1001,678 998,680 996,680 C993,680 991,678 991,675 C991,678 988,680 986,680 C983,680 981,678 981,675 C981,678 978,680 976,680 C973,680 971,678 971,675 C971,678 968,680 966,680 C963,680 961,678 961,675 C961,678 958,680 956,680 C953,680 951,678 951,675 C951,678 948,680 946,680 C943,680 941,678 941,675 C941,678 938,680 936,680 C933,680 931,678 931,675 C931,678 928,680 926,680 C923,680 921,678 921,675 C921,678 918,680 916,680 C913,680 911,678 911,675 C911,678 908,680 906,680 C903,680 901,678 901,675 C901,678 898,680 896,680 C893,680 891,678 891,675 C891,678 888,680 886,680 C883,680 881,678 881,675 C881,678 878,680 876,680 C873,680 871,678 871,675 C871,678 868,680 866,680 C863,680 861,678 861,675 C861,678 858,680 856,680 C853,680 851,678 851,675 C851,678 848,680 846,680 C843,680 841,678 841,675 C841,678 838,680 836,680 C833,680 831,678 831,675 C831,678 828,680 826,680 C823,680 821,678 821,675 C821,678 818,680 816,680 C813,680 811,678 811,675 C811,678 808,680 806,680 C803,680 801,678 801,675 C801,678 798,680 796,680 C793,680 791,678 791,675 C791,678 788,680 786,680 C783,680 781,678 781,675 C781,678 778,680 776,680 C773,680 771,678 771,675 C771,678 768,680 766,680 C763,680 761,678 761,675 C761,678 758,680 756,680 C753,680 751,678 751,675 C751,678 748,680 746,680 C743,680 741,678 741,675 C741,678 738,680 736,680 C733,680 731,678 731,675 C731,678 728,680 726,680 C723,680 721,678 721,675 C721,678 718,680 716,680 C713,680 711,678 711,675 C711,678 708,680 706,680 C703,680 701,678 701,675 C701,678 698,680 696,680 C693,680 691,678 691,675 C691,678 688,680 686,680 C683,680 681,678 681,675 C681,678 678,680 676,680 C673,680 671,678 671,675 C671,678 668,680 666,680 C663,680 661,678 661,675 C661,678 658,680 656,680 C653,680 651,678 651,675 C651,678 648,680 646,680 C643,680 641,678 641,675 C641,678 638,680 636,680 C633,680 631,678 631,675 C631,678 628,680 626,680 C623,680 621,678 621,675 C621,678 618,680 616,680 C613,680 611,678 611,675 C611,678 608,680 606,680 C603,680 601,678 601,675 C598,675 596,673 596,670 C596,667 598,665 601,665 C598,665 596,663 596,660 C596,657 598,655 601,655 C598,655 596,653 596,650 C596,647 598,645 601,645 C598,645 596,643 596,640 C596,637 598,635 601,635 C598,635 596,633 596,630 C596,627 598,625 601,625 C598,625 596,623 596,620 C596,617 598,615 601,615 " fill="#FFFFFF" filter="url(#fiw5od00ir7id)" style="stroke: #000000; stroke-width: 2.0;"/><text fill="#000000" font-family="sans-serif" font-size="14" font-weight="bold" lengthAdjust="spacingAndGlyphs" textLength="26" x="794" y="634.5352">ods</text><!--cluster xls, xlsx--><path d="M598,406 C598,403 600,401 603,401 C606,401 608,403 608,406 C608,403 610,401 613,401 C616,401 618,403 618,406 C618,403 620,401 623,401 C626,401 628,403 628,406 C628,403 630,401 633,401 C636,401 638,403 638,406 C638,403 640,401 643,401 C646,401 648,403 648,406 C648,403 650,401 653,401 C656,401 658,403 658,406 C658,403 660,401 663,401 C666,401 668,403 668,406 C668,403 670,401 673,401 C676,401 678,403 678,406 C678,403 680,401 683,401 C686,401 688,403 688,406 C688,403 690,401 693,401 C696,401 698,403 698,406 C698,403 700,401 703,401 C706,401 708,403 708,406 C708,403 710,401 713,401 C716,401 718,403 718,406 C718,403 720,401 723,401 C726,401 728,403 728,406 C728,403 730,401 733,401 C736,401 738,403 738,406 C738,403 740,401 743,401 C746,401 748,403 748,406 C748,403 750,401 753,401 C756,401 758,403 758,406 C758,403 760,401 763,401 C766,401 768,403 768,406 C768,403 770,401 773,401 C776,401 778,403 778,406 C778,403 780,401 783,401 C786,401 788,403 788,406 C788,403 790,401 793,401 C796,401 798,403 798,406 C798,403 800,401 803,401 C806,401 808,403 808,406 C808,403 810,401 813,401 C816,401 818,403 818,406 C818,403 820,401 823,401 C826,401 828,403 828,406 C828,403 830,401 833,401 C836,401 838,403 838,406 C838,403 840,401 843,401 C846,401 848,403 848,406 C848,403 850,401 853,401 C856,401 858,403 858,406 C858,403 860,401 863,401 C866,401 868,403 868,406 C868,403 870,401 873,401 C876,401 878,403 878,406 C878,403 880,401 883,401 C886,401 888,403 888,406 C888,403 890,401 893,401 C896,401 898,403 898,406 C898,403 900,401 903,401 C906,401 908,403 908,406 C908,403 910,401 913,401 C916,401 918,403 918,406 C918,403 920,401 923,401 C926,401 928,403 928,406 C928,403 930,401 933,401 C936,401 938,403 938,406 C938,403 940,401 943,401 C946,401 948,403 948,406 C948,403 950,401 953,401 C956,401 958,403 958,406 C958,403 960,401 963,401 C966,401 968,403 968,406 C968,403 970,401 973,401 C976,401 978,403 978,406 C978,403 980,401 983,401 C986,401 988,403 988,406 C988,403 990,401 993,401 C996,401 998,403 998,406 C998,403 1000,401 1003,401 C1006,401 1008,403 1008,406 C1008,403 1010,401 1013,401 C1016,401 1018,403 1018,406 C1018,403 1020,401 1023,401 C1026,401 1028,403 1028,406 C1028,403 1030,401 1033,401 C1036,401 1038,403 1038,406 C1038,403 1040,401 1043,401 C1046,401 1048,403 1048,406 C1048,403 1050,401 1053,401 C1056,401 1058,403 1058,406 C1058,403 1060,401 1063,401 C1066,401 1068,403 1068,406 C1068,403 1070,401 1073,401 C1076,401 1078,403 1078,406 C1078,403 1080,401 1083,401 C1086,401 1088,403 1088,406 C1088,403 1090,401 1093,401 C1096,401 1098,403 1098,406 C1098,403 1100,401 1103,401 C1106,401 1108,403 1108,406 C1108,403 1110,401 1113,401 C1116,401 1118,403 1118,406 C1118,403 1120,401 1123,401 C1126,401 1128,403 1128,406 C1128,403 1130,401 1133,401 C1136,401 1138,403 1138,406 C1138,403 1140,401 1143,401 C1146,401 1148,403 1148,406 C1148,403 1150,401 1153,401 C1156,401 1158,403 1158,406 C1158,403 1160,401 1163,401 C1166,401 1168,403 1168,406 C1168,403 1170,401 1173,401 C1176,401 1178,403 1178,406 C1178,403 1180,401 1183,401 C1186,401 1188,403 1188,406 C1188,403 1190,401 1193,401 C1196,401 1198,403 1198,406 C1198,403 1200,401 1203,401 C1206,401 1208,403 1208,406 C1208,403 1210,401 1213,401 C1216,401 1218,403 1218,406 C1218,403 1220,401 1223,401 C1226,401 1228,403 1228,406 C1228,403 1230,401 1233,401 C1236,401 1238,403 1238,406 C1238,403 1240,401 1243,401 C1246,401 1248,403 1248,406 C1248,403 1250,401 1253,401 C1256,401 1258,403 1258,406 C1258,403 1260,401 1263,401 C1266,401 1268,403 1268,406 C1268,403 1270,401 1273,401 C1276,401 1278,403 1278,406 C1278,403 1280,401 1283,401 C1286,401 1288,403 1288,406 C1288,403 1290,401 1293,401 C1296,401 1298,403 1298,406 C1298,403 1300,401 1303,401 C1306,401 1308,403 1308,406 C1308,403 1310,401 1313,401 C1316,401 1318,403 1318,406 C1318,403 1320,401 1323,401 C1326,401 1328,403 1328,406 C1331,406 1333,408 1333,411 C1333,414 1331,416 1328,416 C1331,416 1333,418 1333,421 C1333,424 1331,426 1328,426 C1331,426 1333,428 1333,431 C1333,434 1331,436 1328,436 C1331,436 1333,438 1333,441 C1333,444 1331,446 1328,446 C1331,446 1333,448 1333,451 C1333,454 1331,456 1328,456 C1331,456 1333,458 1333,461 C1333,464 1331,466 1328,466 C1328,469 1325,471 1323,471 C1320,471 1318,469 1318,466 C1318,469 1315,471 1313,471 C1310,471 1308,469 1308,466 C1308,469 1305,471 1303,471 C1300,471 1298,469 1298,466 C1298,469 1295,471 1293,471 C1290,471 1288,469 1288,466 C1288,469 1285,471 1283,471 C1280,471 1278,469 1278,466 C1278,469 1275,471 1273,471 C1270,471 1268,469 1268,466 C1268,469 1265,471 1263,471 C1260,471 1258,469 1258,466 C1258,469 1255,471 1253,471 C1250,471 1248,469 1248,466 C1248,469 1245,471 1243,471 C1240,471 1238,469 1238,466 C1238,469 1235,471 1233,471 C1230,471 1228,469 1228,466 C1228,469 1225,471 1223,471 C1220,471 1218,469 1218,466 C1218,469 1215,471 1213,471 C1210,471 1208,469 1208,466 C1208,469 1205,471 1203,471 C1200,471 1198,469 1198,466 C1198,469 1195,471 1193,471 C1190,471 1188,469 1188,466 C1188,469 1185,471 1183,471 C1180,471 1178,469 1178,466 C1178,469 1175,471 1173,471 C1170,471 1168,469 1168,466 C1168,469 1165,471 1163,471 C1160,471 1158,469 1158,466 C1158,469 1155,471 1153,471 C1150,471 1148,469 1148,466 C1148,469 1145,471 1143,471 C1140,471 1138,469 1138,466 C1138,469 1135,471 1133,471 C1130,471 1128,469 1128,466 C1128,469 1125,471 1123,471 C1120,471 1118,469 1118,466 C1118,469 1115,471 1113,471 C1110,471 1108,469 1108,466 C1108,469 1105,471 1103,471 C1100,471 1098,469 1098,466 C1098,469 1095,471 1093,471 C1090,471 1088,469 1088,466 C1088,469 1085,471 1083,471 C1080,471 1078,469 1078,466 C1078,469 1075,471 1073,471 C1070,471 1068,469 1068,466 C1068,469 1065,471 1063,471 C1060,471 1058,469 1058,466 C1058,469 1055,471 1053,471 C1050,471 1048,469 1048,466 C1048,469 1045,471 1043,471 C1040,471 1038,469 1038,466 C1038,469 1035,471 1033,471 C1030,471 1028,469 1028,466 C1028,469 1025,471 1023,471 C1020,471 1018,469 1018,466 C1018,469 1015,471 1013,471 C1010,471 1008,469 1008,466 C1008,469 1005,471 1003,471 C1000,471 998,469 998,466 C998,469 995,471 993,471 C990,471 988,469 988,466 C988,469 985,471 983,471 C980,471 978,469 978,466 C978,469 975,471 973,471 C970,471 968,469 968,466 C968,469 965,471 963,471 C960,471 958,469 958,466 C958,469 955,471 953,471 C950,471 948,469 948,466 C948,469 945,471 943,471 C940,471 938,469 938,466 C938,469 935,471 933,471 C930,471 928,469 928,466 C928,469 925,471 923,471 C920,471 918,469 918,466 C918,469 915,471 913,471 C910,471 908,469 908,466 C908,469 905,471 903,471 C900,471 898,469 898,466 C898,469 895,471 893,471 C890,471 888,469 888,466 C888,469 885,471 883,471 C880,471 878,469 878,466 C878,469 875,471 873,471 C870,471 868,469 868,466 C868,469 865,471 863,471 C860,471 858,469 858,466 C858,469 855,471 853,471 C850,471 848,469 848,466 C848,469 845,471 843,471 C840,471 838,469 838,466 C838,469 835,471 833,471 C830,471 828,469 828,466 C828,469 825,471 823,471 C820,471 818,469 818,466 C818,469 815,471 813,471 C810,471 808,469 808,466 C808,469 805,471 803,471 C800,471 798,469 798,466 C798,469 795,471 793,471 C790,471 788,469 788,466 C788,469 785,471 783,471 C780,471 778,469 778,466 C778,469 775,471 773,471 C770,471 768,469 768,466 C768,469 765,471 763,471 C760,471 758,469 758,466 C758,469 755,471 753,471 C750,471 748,469 748,466 C748,469 745,471 743,471 C740,471 738,469 738,466 C738,469 735,471 733,471 C730,471 728,469 728,466 C728,469 725,471 723,471 C720,471 718,469 718,466 C718,469 715,471 713,471 C710,471 708,469 708,466 C708,469 705,471 703,471 C700,471 698,469 698,466 C698,469 695,471 693,471 C690,471 688,469 688,466 C688,469 685,471 683,471 C680,471 678,469 678,466 C678,469 675,471 673,471 C670,471 668,469 668,466 C668,469 665,471 663,471 C660,471 658,469 658,466 C658,469 655,471 653,471 C650,471 648,469 648,466 C648,469 645,471 643,471 C640,471 638,469 638,466 C638,469 635,471 633,471 C630,471 628,469 628,466 C628,469 625,471 623,471 C620,471 618,469 618,466 C618,469 615,471 613,471 C610,471 608,469 608,466 C608,469 605,471 603,471 C600,471 598,469 598,466 C595,466 593,464 593,461 C593,458 595,456 598,456 C595,456 593,454 593,451 C593,448 595,446 598,446 C595,446 593,444 593,441 C593,438 595,436 598,436 C595,436 593,434 593,431 C593,428 595,426 598,426 C595,426 593,424 593,421 C593,418 595,416 598,416 C595,416 593,414 593,411 C593,408 595,406 598,406 " fill="#FFFFFF" filter="url(#fiw5od00ir7id)" style="stroke: #000000; stroke-width: 2.0;"/><text fill="#000000" font-family="sans-serif" font-size="14" font-weight="bold" lengthAdjust="spacingAndGlyphs" textLength="58" x="935.5" y="425.5352">xls, xlsx</text><!--entity pyexcel public api--><rect fill="#FEFECE" filter="url(#fiw5od00ir7id)" height="36.4883" style="stroke: #A80036; stroke-width: 1.5;" width="143" x="22.5" y="217"/><rect fill="#FEFECE" height="5" style="stroke: #A80036; stroke-width: 1.5;" width="10" x="17.5" y="222"/><rect fill="#FEFECE" height="5" style="stroke: #A80036; stroke-width: 1.5;" width="10" x="17.5" y="243.4883"/><text fill="#000000" font-family="sans-serif" font-size="14" lengthAdjust="spacingAndGlyphs" textLength="123" x="32.5" y="240.5352">pyexcel public api</text><!--entity pyexcel internal api--><rect fill="#FEFECE" filter="url(#fiw5od00ir7id)" height="36.4883" style="stroke: #A80036; stroke-width: 1.5;" width="154" x="201" y="217"/><rect fill="#FEFECE" height="5" style="stroke: #A80036; stroke-width: 1.5;" width="10" x="196" y="222"/><rect fill="#FEFECE" height="5" style="stroke: #A80036; stroke-width: 1.5;" width="10" x="196" y="243.4883"/><text fill="#000000" font-family="sans-serif" font-size="14" lengthAdjust="spacingAndGlyphs" textLength="134" x="211" y="240.5352">pyexcel internal api</text><!--entity pyexcel plugin interfaces--><rect fill="#FEFECE" filter="url(#fiw5od00ir7id)" height="36.4883" style="stroke: #A80036; stroke-width: 1.5;" width="191" x="390.5" y="217"/><rect fill="#FEFECE" height="5" style="stroke: #A80036; stroke-width: 1.5;" width="10" x="385.5" y="222"/><rect fill="#FEFECE" height="5" style="stroke: #A80036; stroke-width: 1.5;" width="10" x="385.5" y="243.4883"/><text fill="#000000" font-family="sans-serif" font-size="14" lengthAdjust="spacingAndGlyphs" textLength="171" x="400.5" y="240.5352">pyexcel plugin interfaces</text><!--entity data source plugins--><rect fill="#FEFECE" filter="url(#fiw5od00ir7id)" height="36.4883" style="stroke: #A80036; stroke-width: 1.5;" width="155" x="430.5" y="321.5"/><rect fill="#FEFECE" height="5" style="stroke: #A80036; stroke-width: 1.5;" width="10" x="425.5" y="326.5"/><rect fill="#FEFECE" height="5" style="stroke: #A80036; stroke-width: 1.5;" width="10" x="425.5" y="347.9883"/><text fill="#000000" font-family="sans-serif" font-size="14" lengthAdjust="spacingAndGlyphs" textLength="135" x="440.5" y="345.0352">data source plugins</text><!--entity data renderer plugins--><rect fill="#FEFECE" filter="url(#fiw5od00ir7id)" height="36.4883" style="stroke: #A80036; stroke-width: 1.5;" width="169" x="226.5" y="321.5"/><rect fill="#FEFECE" height="5" style="stroke: #A80036; stroke-width: 1.5;" width="10" x="221.5" y="326.5"/><rect fill="#FEFECE" height="5" style="stroke: #A80036; stroke-width: 1.5;" width="10" x="221.5" y="347.9883"/><text fill="#000000" font-family="sans-serif" font-size="14" lengthAdjust="spacingAndGlyphs" textLength="149" x="236.5" y="345.0352">data renderer plugins</text><!--entity data parsing plugins--><rect fill="#FEFECE" filter="url(#fiw5od00ir7id)" height="36.4883" style="stroke: #A80036; stroke-width: 1.5;" width="161" x="30.5" y="321.5"/><rect fill="#FEFECE" height="5" style="stroke: #A80036; stroke-width: 1.5;" width="10" x="25.5" y="326.5"/><rect fill="#FEFECE" height="5" style="stroke: #A80036; stroke-width: 1.5;" width="10" x="25.5" y="347.9883"/><text fill="#000000" font-family="sans-serif" font-size="14" lengthAdjust="spacingAndGlyphs" textLength="141" x="40.5" y="345.0352">data parsing plugins</text><!--entity pyexcel-io public api--><rect fill="#FEFECE" filter="url(#fiw5od00ir7id)" height="36.4883" style="stroke: #A80036; stroke-width: 1.5;" width="164" x="236" y="426"/><rect fill="#FEFECE" height="5" style="stroke: #A80036; stroke-width: 1.5;" width="10" x="231" y="431"/><rect fill="#FEFECE" height="5" style="stroke: #A80036; stroke-width: 1.5;" width="10" x="231" y="452.4883"/><text fill="#000000" font-family="sans-serif" font-size="14" lengthAdjust="spacingAndGlyphs" textLength="144" x="246" y="449.5352">pyexcel-io public api</text><!--entity pyexcel-io plugin interfaces--><rect fill="#FEFECE" filter="url(#fiw5od00ir7id)" height="36.4883" style="stroke: #A80036; stroke-width: 1.5;" width="212" x="367" y="530.5"/><rect fill="#FEFECE" height="5" style="stroke: #A80036; stroke-width: 1.5;" width="10" x="362" y="535.5"/><rect fill="#FEFECE" height="5" style="stroke: #A80036; stroke-width: 1.5;" width="10" x="362" y="556.9883"/><text fill="#000000" font-family="sans-serif" font-size="14" lengthAdjust="spacingAndGlyphs" textLength="192" x="377" y="554.0352">pyexcel-io plugin interfaces</text><!--entity csv, csvz, tsv, tsvz--><rect fill="#FEFECE" filter="url(#fiw5od00ir7id)" height="36.4883" style="stroke: #A80036; stroke-width: 1.5;" width="140" x="431" y="635"/><rect fill="#FEFECE" height="5" style="stroke: #A80036; stroke-width: 1.5;" width="10" x="426" y="640"/><rect fill="#FEFECE" height="5" style="stroke: #A80036; stroke-width: 1.5;" width="10" x="426" y="661.4883"/><text fill="#000000" font-family="sans-serif" font-size="14" lengthAdjust="spacingAndGlyphs" textLength="120" x="441" y="658.5352">csv, csvz, tsv, tsvz</text><!--entity django, sqlalchemy--><rect fill="#FEFECE" filter="url(#fiw5od00ir7id)" height="36.4883" style="stroke: #A80036; stroke-width: 1.5;" width="152" x="244" y="635"/><rect fill="#FEFECE" height="5" style="stroke: #A80036; stroke-width: 1.5;" width="10" x="239" y="640"/><rect fill="#FEFECE" height="5" style="stroke: #A80036; stroke-width: 1.5;" width="10" x="239" y="661.4883"/><text fill="#000000" font-family="sans-serif" font-size="14" lengthAdjust="spacingAndGlyphs" textLength="132" x="254" y="658.5352">django, sqlalchemy</text><!--entity pyexcel-ods--><rect fill="#FEFECE" filter="url(#fiw5od00ir7id)" height="36.4883" style="stroke: #A80036; stroke-width: 1.5;" width="105" x="606.5" y="635"/><rect fill="#FEFECE" height="5" style="stroke: #A80036; stroke-width: 1.5;" width="10" x="601.5" y="640"/><rect fill="#FEFECE" height="5" style="stroke: #A80036; stroke-width: 1.5;" width="10" x="601.5" y="661.4883"/><text fill="#000000" font-family="sans-serif" font-size="14" lengthAdjust="spacingAndGlyphs" textLength="85" x="616.5" y="658.5352">pyexcel-ods</text><!--entity pyexcel-ods3--><rect fill="#FEFECE" filter="url(#fiw5od00ir7id)" height="36.4883" style="stroke: #A80036; stroke-width: 1.5;" width="114" x="747" y="635"/><rect fill="#FEFECE" height="5" style="stroke: #A80036; stroke-width: 1.5;" width="10" x="742" y="640"/><rect fill="#FEFECE" height="5" style="stroke: #A80036; stroke-width: 1.5;" width="10" x="742" y="661.4883"/><text fill="#000000" font-family="sans-serif" font-size="14" lengthAdjust="spacingAndGlyphs" textLength="94" x="757" y="658.5352">pyexcel-ods3</text><!--entity pyexcel-odsr--><rect fill="#FEFECE" filter="url(#fiw5od00ir7id)" height="36.4883" style="stroke: #A80036; stroke-width: 1.5;" width="111" x="896.5" y="635"/><rect fill="#FEFECE" height="5" style="stroke: #A80036; stroke-width: 1.5;" width="10" x="891.5" y="640"/><rect fill="#FEFECE" height="5" style="stroke: #A80036; stroke-width: 1.5;" width="10" x="891.5" y="661.4883"/><text fill="#000000" font-family="sans-serif" font-size="14" lengthAdjust="spacingAndGlyphs" textLength="91" x="906.5" y="658.5352">pyexcel-odsr</text><!--entity pyexcel-xls--><rect fill="#FEFECE" filter="url(#fiw5od00ir7id)" height="36.4883" style="stroke: #A80036; stroke-width: 1.5;" width="100" x="931" y="426"/><rect fill="#FEFECE" height="5" style="stroke: #A80036; stroke-width: 1.5;" width="10" x="926" y="431"/><rect fill="#FEFECE" height="5" style="stroke: #A80036; stroke-width: 1.5;" width="10" x="926" y="452.4883"/><text fill="#000000" font-family="sans-serif" font-size="14" lengthAdjust="spacingAndGlyphs" textLength="80" x="941" y="449.5352">pyexcel-xls</text><!--entity pyexcel-xlsx--><rect fill="#FEFECE" filter="url(#fiw5od00ir7id)" height="36.4883" style="stroke: #A80036; stroke-width: 1.5;" width="109" x="1066.5" y="426"/><rect fill="#FEFECE" height="5" style="stroke: #A80036; stroke-width: 1.5;" width="10" x="1061.5" y="431"/><rect fill="#FEFECE" height="5" style="stroke: #A80036; stroke-width: 1.5;" width="10" x="1061.5" y="452.4883"/><text fill="#000000" font-family="sans-serif" font-size="14" lengthAdjust="spacingAndGlyphs" textLength="89" x="1076.5" y="449.5352">pyexcel-xlsx</text><!--entity pyexcel-xlsxw--><rect fill="#FEFECE" filter="url(#fiw5od00ir7id)" height="36.4883" style="stroke: #A80036; stroke-width: 1.5;" width="120" x="776" y="426"/><rect fill="#FEFECE" height="5" style="stroke: #A80036; stroke-width: 1.5;" width="10" x="771" y="431"/><rect fill="#FEFECE" height="5" style="stroke: #A80036; stroke-width: 1.5;" width="10" x="771" y="452.4883"/><text fill="#000000" font-family="sans-serif" font-size="14" lengthAdjust="spacingAndGlyphs" textLength="100" x="786" y="449.5352">pyexcel-xlsxw</text><!--entity pyexcel-libxlsxw--><rect fill="#FEFECE" filter="url(#fiw5od00ir7id)" height="36.4883" style="stroke: #A80036; stroke-width: 1.5;" width="137" x="603.5" y="426"/><rect fill="#FEFECE" height="5" style="stroke: #A80036; stroke-width: 1.5;" width="10" x="598.5" y="431"/><rect fill="#FEFECE" height="5" style="stroke: #A80036; stroke-width: 1.5;" width="10" x="598.5" y="452.4883"/><text fill="#000000" font-family="sans-serif" font-size="14" lengthAdjust="spacingAndGlyphs" textLength="117" x="613.5" y="449.5352">pyexcel-libxlsxw</text><!--entity pyexcel-xlsxr--><rect fill="#FEFECE" filter="url(#fiw5od00ir7id)" height="36.4883" style="stroke: #A80036; stroke-width: 1.5;" width="115" x="1210.5" y="426"/><rect fill="#FEFECE" height="5" style="stroke: #A80036; stroke-width: 1.5;" width="10" x="1205.5" y="431"/><rect fill="#FEFECE" height="5" style="stroke: #A80036; stroke-width: 1.5;" width="10" x="1205.5" y="452.4883"/><text fill="#000000" font-family="sans-serif" font-size="14" lengthAdjust="spacingAndGlyphs" textLength="95" x="1220.5" y="449.5352">pyexcel-xlsxr</text><!--entity tabulate--><rect fill="#FFFFFF" filter="url(#fiw5od00ir7id)" height="52.9766" style="stroke: #A80036; stroke-width: 1.5;" width="117" x="251.5" y="8"/><rect fill="#FFFFFF" height="5" style="stroke: #A80036; stroke-width: 1.5;" width="10" x="246.5" y="13"/><rect fill="#FFFFFF" height="5" style="stroke: #A80036; stroke-width: 1.5;" width="10" x="246.5" y="50.9766"/><text fill="#000000" font-family="sans-serif" font-size="14" font-style="italic" lengthAdjust="spacingAndGlyphs" textLength="97" x="261.5" y="31.5352">«dependency»</text><text fill="#000000" font-family="sans-serif" font-size="14" lengthAdjust="spacingAndGlyphs" textLength="56" x="282" y="48.0234">tabulate</text><!--entity pygal--><rect fill="#FFFFFF" filter="url(#fiw5od00ir7id)" height="52.9766" style="stroke: #A80036; stroke-width: 1.5;" width="117" x="608.5" y="8"/><rect fill="#FFFFFF" height="5" style="stroke: #A80036; stroke-width: 1.5;" width="10" x="603.5" y="13"/><rect fill="#FFFFFF" height="5" style="stroke: #A80036; stroke-width: 1.5;" width="10" x="603.5" y="50.9766"/><text fill="#000000" font-family="sans-serif" font-size="14" font-style="italic" lengthAdjust="spacingAndGlyphs" textLength="97" x="618.5" y="31.5352">«dependency»</text><text fill="#000000" font-family="sans-serif" font-size="14" lengthAdjust="spacingAndGlyphs" textLength="37" x="648.5" y="48.0234">pygal</text><!--entity handsontable--><rect fill="#FFFFFF" filter="url(#fiw5od00ir7id)" height="52.9766" style="stroke: #A80036; stroke-width: 1.5;" width="117" x="427.5" y="8"/><rect fill="#FFFFFF" height="5" style="stroke: #A80036; stroke-width: 1.5;" width="10" x="422.5" y="13"/><rect fill="#FFFFFF" height="5" style="stroke: #A80036; stroke-width: 1.5;" width="10" x="422.5" y="50.9766"/><text fill="#000000" font-family="sans-serif" font-size="14" font-style="italic" lengthAdjust="spacingAndGlyphs" textLength="97" x="437.5" y="31.5352">«dependency»</text><text fill="#000000" font-family="sans-serif" font-size="14" lengthAdjust="spacingAndGlyphs" textLength="94" x="439" y="48.0234">handsontable</text><!--entity xlrd--><rect fill="#FFFFFF" filter="url(#fiw5od00ir7id)" height="52.9766" style="stroke: #A80036; stroke-width: 1.5;" width="117" x="758.5" y="522"/><rect fill="#FFFFFF" height="5" style="stroke: #A80036; stroke-width: 1.5;" width="10" x="753.5" y="527"/><rect fill="#FFFFFF" height="5" style="stroke: #A80036; stroke-width: 1.5;" width="10" x="753.5" y="564.9766"/><text fill="#000000" font-family="sans-serif" font-size="14" font-style="italic" lengthAdjust="spacingAndGlyphs" textLength="97" x="768.5" y="545.5352">«dependency»</text><text fill="#000000" font-family="sans-serif" font-size="14" lengthAdjust="spacingAndGlyphs" textLength="28" x="803" y="562.0234">xlrd</text><!--entity xlwt--><rect fill="#FFFFFF" filter="url(#fiw5od00ir7id)" height="52.9766" style="stroke: #A80036; stroke-width: 1.5;" width="117" x="910.5" y="522"/><rect fill="#FFFFFF" height="5" style="stroke: #A80036; stroke-width: 1.5;" width="10" x="905.5" y="527"/><rect fill="#FFFFFF" height="5" style="stroke: #A80036; stroke-width: 1.5;" width="10" x="905.5" y="564.9766"/><text fill="#000000" font-family="sans-serif" font-size="14" font-style="italic" lengthAdjust="spacingAndGlyphs" textLength="97" x="920.5" y="545.5352">«dependency»</text><text fill="#000000" font-family="sans-serif" font-size="14" lengthAdjust="spacingAndGlyphs" textLength="29" x="954.5" y="562.0234">xlwt</text><!--entity openpyxl--><rect fill="#FFFFFF" filter="url(#fiw5od00ir7id)" height="52.9766" style="stroke: #A80036; stroke-width: 1.5;" width="117" x="1062.5" y="522"/><rect fill="#FFFFFF" height="5" style="stroke: #A80036; stroke-width: 1.5;" width="10" x="1057.5" y="527"/><rect fill="#FFFFFF" height="5" style="stroke: #A80036; stroke-width: 1.5;" width="10" x="1057.5" y="564.9766"/><text fill="#000000" font-family="sans-serif" font-size="14" font-style="italic" lengthAdjust="spacingAndGlyphs" textLength="97" x="1072.5" y="545.5352">«dependency»</text><text fill="#000000" font-family="sans-serif" font-size="14" lengthAdjust="spacingAndGlyphs" textLength="64" x="1089" y="562.0234">openpyxl</text><!--entity xlsxwriter--><rect fill="#FFFFFF" filter="url(#fiw5od00ir7id)" height="52.9766" style="stroke: #A80036; stroke-width: 1.5;" width="117" x="924.5" y="313"/><rect fill="#FFFFFF" height="5" style="stroke: #A80036; stroke-width: 1.5;" width="10" x="919.5" y="318"/><rect fill="#FFFFFF" height="5" style="stroke: #A80036; stroke-width: 1.5;" width="10" x="919.5" y="355.9766"/><text fill="#000000" font-family="sans-serif" font-size="14" font-style="italic" lengthAdjust="spacingAndGlyphs" textLength="97" x="934.5" y="336.5352">«dependency»</text><text fill="#000000" font-family="sans-serif" font-size="14" lengthAdjust="spacingAndGlyphs" textLength="69" x="948.5" y="353.0234">xlsxwriter</text><!--entity ezodf--><rect fill="#FFFFFF" filter="url(#fiw5od00ir7id)" height="52.9766" style="stroke: #A80036; stroke-width: 1.5;" width="117" x="749.5" y="792"/><rect fill="#FFFFFF" height="5" style="stroke: #A80036; stroke-width: 1.5;" width="10" x="744.5" y="797"/><rect fill="#FFFFFF" height="5" style="stroke: #A80036; stroke-width: 1.5;" width="10" x="744.5" y="834.9766"/><text fill="#000000" font-family="sans-serif" font-size="14" font-style="italic" lengthAdjust="spacingAndGlyphs" textLength="97" x="759.5" y="815.5352">«dependency»</text><text fill="#000000" font-family="sans-serif" font-size="14" lengthAdjust="spacingAndGlyphs" textLength="39" x="788.5" y="832.0234">ezodf</text><!--entity odfpy--><rect fill="#FFFFFF" filter="url(#fiw5od00ir7id)" height="52.9766" style="stroke: #A80036; stroke-width: 1.5;" width="117" x="597.5" y="792"/><rect fill="#FFFFFF" height="5" style="stroke: #A80036; stroke-width: 1.5;" width="10" x="592.5" y="797"/><rect fill="#FFFFFF" height="5" style="stroke: #A80036; stroke-width: 1.5;" width="10" x="592.5" y="834.9766"/><text fill="#000000" font-family="sans-serif" font-size="14" font-style="italic" lengthAdjust="spacingAndGlyphs" textLength="97" x="607.5" y="815.5352">«dependency»</text><text fill="#000000" font-family="sans-serif" font-size="14" lengthAdjust="spacingAndGlyphs" textLength="39" x="636.5" y="832.0234">odfpy</text><!--entity lxml--><rect fill="#FFFFFF" filter="url(#fiw5od00ir7id)" height="52.9766" style="stroke: #A80036; stroke-width: 1.5;" width="117" x="1214.5" y="522"/><rect fill="#FFFFFF" height="5" style="stroke: #A80036; stroke-width: 1.5;" width="10" x="1209.5" y="527"/><rect fill="#FFFFFF" height="5" style="stroke: #A80036; stroke-width: 1.5;" width="10" x="1209.5" y="564.9766"/><text fill="#000000" font-family="sans-serif" font-size="14" font-style="italic" lengthAdjust="spacingAndGlyphs" textLength="97" x="1224.5" y="545.5352">«dependency»</text><text fill="#000000" font-family="sans-serif" font-size="14" lengthAdjust="spacingAndGlyphs" textLength="30" x="1258" y="562.0234">lxml</text><!--entity libxlsxwpy--><rect fill="#FFFFFF" filter="url(#fiw5od00ir7id)" height="52.9766" style="stroke: #A80036; stroke-width: 1.5;" width="117" x="620.5" y="313"/><rect fill="#FFFFFF" height="5" style="stroke: #A80036; stroke-width: 1.5;" width="10" x="615.5" y="318"/><rect fill="#FFFFFF" height="5" style="stroke: #A80036; stroke-width: 1.5;" width="10" x="615.5" y="355.9766"/><text fill="#000000" font-family="sans-serif" font-size="14" font-style="italic" lengthAdjust="spacingAndGlyphs" textLength="97" x="630.5" y="336.5352">«dependency»</text><text fill="#000000" font-family="sans-serif" font-size="14" lengthAdjust="spacingAndGlyphs" textLength="73" x="642.5" y="353.0234">libxlsxwpy</text><!--entity libxlsx--><rect fill="#FFFFFF" filter="url(#fiw5od00ir7id)" height="52.9766" style="stroke: #A80036; stroke-width: 1.5;" width="117" x="772.5" y="313"/><rect fill="#FFFFFF" height="5" style="stroke: #A80036; stroke-width: 1.5;" width="10" x="767.5" y="318"/><rect fill="#FFFFFF" height="5" style="stroke: #A80036; stroke-width: 1.5;" width="10" x="767.5" y="355.9766"/><text fill="#000000" font-family="sans-serif" font-size="14" font-style="italic" lengthAdjust="spacingAndGlyphs" textLength="97" x="782.5" y="336.5352">«dependency»</text><text fill="#000000" font-family="sans-serif" font-size="14" lengthAdjust="spacingAndGlyphs" textLength="46" x="808" y="353.0234">libxlsx</text><!--entity pyexcel-text--><rect fill="#FEFECE" filter="url(#fiw5od00ir7id)" height="36.4883" style="stroke: #A80036; stroke-width: 1.5;" width="107" x="256.5" y="121"/><rect fill="#FEFECE" height="5" style="stroke: #A80036; stroke-width: 1.5;" width="10" x="251.5" y="126"/><rect fill="#FEFECE" height="5" style="stroke: #A80036; stroke-width: 1.5;" width="10" x="251.5" y="147.4883"/><text fill="#000000" font-family="sans-serif" font-size="14" lengthAdjust="spacingAndGlyphs" textLength="87" x="266.5" y="144.5352">pyexcel-text</text><!--entity pyexcel-pygal--><rect fill="#FEFECE" filter="url(#fiw5od00ir7id)" height="36.4883" style="stroke: #A80036; stroke-width: 1.5;" width="117" x="608.5" y="121"/><rect fill="#FEFECE" height="5" style="stroke: #A80036; stroke-width: 1.5;" width="10" x="603.5" y="126"/><rect fill="#FEFECE" height="5" style="stroke: #A80036; stroke-width: 1.5;" width="10" x="603.5" y="147.4883"/><text fill="#000000" font-family="sans-serif" font-size="14" lengthAdjust="spacingAndGlyphs" textLength="97" x="618.5" y="144.5352">pyexcel-pygal</text><!--entity pyexcel-handsontable--><rect fill="#FEFECE" filter="url(#fiw5od00ir7id)" height="36.4883" style="stroke: #A80036; stroke-width: 1.5;" width="174" x="399" y="121"/><rect fill="#FEFECE" height="5" style="stroke: #A80036; stroke-width: 1.5;" width="10" x="394" y="126"/><rect fill="#FEFECE" height="5" style="stroke: #A80036; stroke-width: 1.5;" width="10" x="394" y="147.4883"/><text fill="#000000" font-family="sans-serif" font-size="14" lengthAdjust="spacingAndGlyphs" textLength="154" x="409" y="144.5352">pyexcel-handsontable</text><!--entity sphinxcontrib-excel--><rect fill="#FEFECE" filter="url(#fiw5od00ir7id)" height="36.4883" style="stroke: #A80036; stroke-width: 1.5;" width="160" x="61" y="121"/><rect fill="#FEFECE" height="5" style="stroke: #A80036; stroke-width: 1.5;" width="10" x="56" y="126"/><rect fill="#FEFECE" height="5" style="stroke: #A80036; stroke-width: 1.5;" width="10" x="56" y="147.4883"/><text fill="#000000" font-family="sans-serif" font-size="14" lengthAdjust="spacingAndGlyphs" textLength="140" x="71" y="144.5352">sphinxcontrib-excel</text><!--link pyexcel public api to pyexcel internal api--><path d="M165.5156,235 C175.4935,235 185.4713,235 195.4492,235 " fill="none" id="pyexcel public api-pyexcel internal api" style="stroke: #A80036; stroke-width: 1.0;"/><polygon fill="#A80036" points="200.667,235,191.667,231,195.667,235,191.667,239,200.667,235" style="stroke: #A80036; stroke-width: 1.0;"/><!--link pyexcel internal api to pyexcel plugin interfaces--><path d="M355.1875,235 C365.1956,235 375.2038,235 385.2119,235 " fill="none" id="pyexcel internal api-pyexcel plugin interfaces" style="stroke: #A80036; stroke-width: 1.0;"/><polygon fill="#A80036" points="390.4456,235,381.4456,231,385.4456,235,381.4456,239,390.4456,235" style="stroke: #A80036; stroke-width: 1.0;"/><!--link pyexcel-text to pyexcel plugin interfaces--><path d="M347.6141,159.5168 C378.8298,176.5435 422.8023,200.5285 452.7455,216.8612 " fill="none" id="pyexcel-text-pyexcel plugin interfaces" style="stroke: #A80036; stroke-width: 1.0; stroke-dasharray: 7.0,7.0;"/><polygon fill="#A80036" points="343.1043,157.0569,349.0897,164.8784,347.4937,159.4513,352.9207,157.8553,343.1043,157.0569" style="stroke: #A80036; stroke-width: 1.0;"/><!--link pyexcel-pygal to pyexcel plugin interfaces--><path d="M628.3173,159.5168 C596.2148,176.5435 550.9931,200.5285 520.1993,216.8612 " fill="none" id="pyexcel-pygal-pyexcel plugin interfaces" style="stroke: #A80036; stroke-width: 1.0; stroke-dasharray: 7.0,7.0;"/><polygon fill="#A80036" points="632.9553,157.0569,623.1302,157.7403,628.5382,159.3998,626.8787,164.8077,632.9553,157.0569" style="stroke: #A80036; stroke-width: 1.0;"/><!--link pyexcel-handsontable to pyexcel plugin interfaces--><path d="M486,162.0611 C486,178.8106 486,201.1694 486,216.6977 " fill="none" id="pyexcel-handsontable-pyexcel plugin interfaces" style="stroke: #A80036; stroke-width: 1.0; stroke-dasharray: 7.0,7.0;"/><polygon fill="#A80036" points="486,157.0569,482,166.0569,486,162.0569,490,166.0569,486,157.0569" style="stroke: #A80036; stroke-width: 1.0;"/><!--link pyexcel plugin interfaces to data source plugins--><path d="M489.8321,253.2025 C493.5005,270.6276 499.0528,297.0009 503.0536,316.0045 " fill="none" id="pyexcel plugin interfaces-data source plugins" style="stroke: #A80036; stroke-width: 1.0; stroke-dasharray: 7.0,7.0;"/><polygon fill="#A80036" points="504.138,321.1555,506.1982,311.5245,503.108,316.2627,498.3698,313.1725,504.138,321.1555" style="stroke: #A80036; stroke-width: 1.0;"/><!--link pyexcel plugin interfaces to data renderer plugins--><path d="M455.5173,253.2025 C424.9962,271.428 378.0816,299.4427 346.042,318.5749 " fill="none" id="pyexcel plugin interfaces-data renderer plugins" style="stroke: #A80036; stroke-width: 1.0; stroke-dasharray: 7.0,7.0;"/><polygon fill="#A80036" points="341.4264,321.3311,351.2043,320.1512,345.7193,318.7677,347.1028,313.2826,341.4264,321.3311" style="stroke: #A80036; stroke-width: 1.0;"/><!--link pyexcel plugin interfaces to data parsing plugins--><path d="M390.3918,250.2007 C336.3714,260.108 268.043,274.8665 209,294.5 C189.1888,301.0878 168.0415,310.4751 150.4814,318.9729 " fill="none" id="pyexcel plugin interfaces-data parsing plugins" style="stroke: #A80036; stroke-width: 1.0; stroke-dasharray: 7.0,7.0;"/><polygon fill="#A80036" points="145.6278,321.3431,155.4703,320.9883,150.1207,319.1491,151.9599,313.7996,145.6278,321.3431" style="stroke: #A80036; stroke-width: 1.0;"/><!--link data renderer plugins to pyexcel-io public api--><path d="M312.2193,357.7025 C313.3865,375.1276 315.1532,401.5009 316.4261,420.5045 " fill="none" id="data renderer plugins-pyexcel-io public api" style="stroke: #A80036; stroke-width: 1.0;"/><polygon fill="#A80036" points="316.7712,425.6555,320.1605,416.4082,316.4369,420.6667,312.1784,416.9431,316.7712,425.6555" style="stroke: #A80036; stroke-width: 1.0;"/><!--link data parsing plugins to pyexcel-io public api--><path d="M147.0566,357.7025 C183.4547,376.0774 239.563,404.4026 277.4787,423.5436 " fill="none" id="data parsing plugins-pyexcel-io public api" style="stroke: #A80036; stroke-width: 1.0;"/><polygon fill="#A80036" points="282.0099,425.8311,275.7785,418.2042,277.5465,423.5777,272.173,425.3457,282.0099,425.8311" style="stroke: #A80036; stroke-width: 1.0;"/><!--link pyexcel-io public api to pyexcel-io plugin interfaces--><path d="M344.9989,462.2025 C371.9211,480.3533 413.2445,508.2132 441.6133,527.3393 " fill="none" id="pyexcel-io public api-pyexcel-io plugin interfaces" style="stroke: #A80036; stroke-width: 1.0;"/><polygon fill="#A80036" points="446.0509,530.3311,440.8244,521.9834,441.9051,527.5361,436.3524,528.6168,446.0509,530.3311" style="stroke: #A80036; stroke-width: 1.0;"/><!--link pyexcel-io plugin interfaces to csv, csvz, tsv, tsvz--><path d="M477.8772,566.7025 C482.5461,584.1276 489.6127,610.5009 494.7045,629.5045 " fill="none" id="pyexcel-io plugin interfaces-csv, csvz, tsv, tsvz" style="stroke: #A80036; stroke-width: 1.0; stroke-dasharray: 7.0,7.0;"/><polygon fill="#A80036" points="496.0847,634.6555,497.619,624.9269,494.7906,629.8259,489.8916,626.9975,496.0847,634.6555" style="stroke: #A80036; stroke-width: 1.0;"/><!--link pyexcel-io plugin interfaces to django, sqlalchemy--><path d="M446.3494,566.7025 C419.7746,584.8533 378.9845,612.7132 350.9817,631.8393 " fill="none" id="pyexcel-io plugin interfaces-django, sqlalchemy" style="stroke: #A80036; stroke-width: 1.0; stroke-dasharray: 7.0,7.0;"/><polygon fill="#A80036" points="346.6014,634.8311,356.2893,633.058,350.7302,632.011,351.7772,626.4519,346.6014,634.8311" style="stroke: #A80036; stroke-width: 1.0;"/><!--link pyexcel-xls to pyexcel-io plugin interfaces--><path d="M933.2894,463.8058 C926.8692,466.0893 920.3188,468.2297 914,470 C801.6761,501.4696 669.5765,523.0116 579.4391,535.4557 " fill="none" id="pyexcel-xls-pyexcel-io plugin interfaces" style="stroke: #A80036; stroke-width: 1.0; stroke-dasharray: 7.0,7.0;"/><polygon fill="#A80036" points="938.1675,462.0354,928.3428,461.3459,933.4675,463.7413,931.0722,468.8659,938.1675,462.0354" style="stroke: #A80036; stroke-width: 1.0;"/><!--link pyexcel-xlsxw to pyexcel-io plugin interfaces--><path d="M778.4985,463.5491 C771.608,465.7785 764.6575,467.9751 758,470 C684.8397,492.2519 600.2959,515.1939 542.4034,530.4846 " fill="none" id="pyexcel-xlsxw-pyexcel-io plugin interfaces" style="stroke: #A80036; stroke-width: 1.0; stroke-dasharray: 7.0,7.0;"/><polygon fill="#A80036" points="783.2549,462.0022,773.459,460.9822,778.5001,463.5488,775.9335,468.5898,783.2549,462.0022" style="stroke: #A80036; stroke-width: 1.0;"/><!--link pyexcel-libxlsxw to pyexcel-io plugin interfaces--><path d="M632.5325,464.7254 C596.0682,483.8737 542.4253,512.043 507.5992,530.3311 " fill="none" id="pyexcel-libxlsxw-pyexcel-io plugin interfaces" style="stroke: #A80036; stroke-width: 1.0; stroke-dasharray: 7.0,7.0;"/><polygon fill="#A80036" points="637.3368,462.2025,627.509,462.8456,632.9101,464.5272,631.2285,469.9283,637.3368,462.2025" style="stroke: #A80036; stroke-width: 1.0;"/><!--link pyexcel-xlsx to pyexcel-io plugin interfaces--><path d="M1070.4488,463.7617 C1063.3191,466.1053 1056.0257,468.2733 1049,470 C962.3244,491.3024 720.4565,520.6417 579.2227,536.7432 " fill="none" id="pyexcel-xlsx-pyexcel-io plugin interfaces" style="stroke: #A80036; stroke-width: 1.0; stroke-dasharray: 7.0,7.0;"/><polygon fill="#A80036" points="1075.3532,462.1144,1065.548,461.1881,1070.6134,463.7064,1068.0952,468.7718,1075.3532,462.1144" style="stroke: #A80036; stroke-width: 1.0;"/><!--link pyexcel-xlsxr to pyexcel-io plugin interfaces--><path d="M1216.4492,463.5654 C1208.6725,466.0211 1200.6828,468.2727 1193,470 C1163.5188,476.6282 772.2616,517.5725 579.2254,537.5536 " fill="none" id="pyexcel-xlsxr-pyexcel-io plugin interfaces" style="stroke: #A80036; stroke-width: 1.0; stroke-dasharray: 7.0,7.0;"/><polygon fill="#A80036" points="1221.2592,462.0129,1211.4656,460.9708,1216.5009,463.5488,1213.923,468.5841,1221.2592,462.0129" style="stroke: #A80036; stroke-width: 1.0;"/><!--link pyexcel-ods to pyexcel-io plugin interfaces--><path d="M626.8197,632.1442 C614.4927,624.3524 600.2173,615.5645 587,608 C561.4233,593.3619 531.9135,578.0002 509.3266,566.5528 " fill="none" id="pyexcel-ods-pyexcel-io plugin interfaces" style="stroke: #A80036; stroke-width: 1.0; stroke-dasharray: 7.0,7.0;"/><polygon fill="#A80036" points="631.2674,634.9657,625.8101,626.767,627.0452,632.2874,621.5249,633.5225,631.2674,634.9657" style="stroke: #A80036; stroke-width: 1.0;"/><!--link pyexcel-io plugin interfaces to pyexcel-ods3--><path d="M579.2792,565.482 C626.2123,574.9288 681.4132,588.7504 729,608 C744.5558,614.2926 760.6572,623.5378 773.9343,632.014 " fill="none" id="pyexcel-io plugin interfaces-pyexcel-ods3" style="stroke: #A80036; stroke-width: 1.0; stroke-dasharray: 7.0,7.0;"/><polygon fill="#A80036" points="778.3239,634.8537,772.94,626.6067,774.1258,632.1379,768.5946,633.3237,778.3239,634.8537" style="stroke: #A80036; stroke-width: 1.0;"/><!--link pyexcel-io plugin interfaces to pyexcel-odsr--><path d="M579.3424,559.1569 C680.6927,570.2001 825.5275,588.5436 879,608 C894.838,613.7628 910.9433,623.2283 923.9826,631.995 " fill="none" id="pyexcel-io plugin interfaces-pyexcel-odsr" style="stroke: #A80036; stroke-width: 1.0; stroke-dasharray: 7.0,7.0;"/><polygon fill="#A80036" points="928.2822,634.9349,923.1108,626.553,924.1549,632.1127,918.5952,633.1568,928.2822,634.9349" style="stroke: #A80036; stroke-width: 1.0;"/><!--link tabulate to pyexcel-text--><path d="M310,61.1401 C310,79.8859 310,104.4746 310,120.9587 " fill="none" id="tabulate-pyexcel-text" style="stroke: #A80036; stroke-width: 1.0;"/><!--link pygal to pyexcel-pygal--><path d="M667,61.1401 C667,79.8859 667,104.4746 667,120.9587 " fill="none" id="pygal-pyexcel-pygal" style="stroke: #A80036; stroke-width: 1.0;"/><!--link handsontable to pyexcel-handsontable--><path d="M486,61.1401 C486,79.8859 486,104.4746 486,120.9587 " fill="none" id="handsontable-pyexcel-handsontable" style="stroke: #A80036; stroke-width: 1.0;"/><!--link pyexcel-xls to xlrd--><path d="M952.4334,462.2025 C926.5538,478.6929 888.0971,503.1973 858.7686,521.8852 " fill="none" id="pyexcel-xls-xlrd" style="stroke: #A80036; stroke-width: 1.0;"/><!--link pyexcel-xls to xlwt--><path d="M978.9098,462.2025 C977.0161,478.6929 974.2022,503.1973 972.0562,521.8852 " fill="none" id="pyexcel-xls-xlwt" style="stroke: #A80036; stroke-width: 1.0;"/><!--link pyexcel-xlsx to openpyxl--><path d="M1121,462.2025 C1121,478.6929 1121,503.1973 1121,521.8852 " fill="none" id="pyexcel-xlsx-openpyxl" style="stroke: #A80036; stroke-width: 1.0;"/><!--link xlsxwriter to pyexcel-xlsxw--><path d="M945.5253,366.1401 C919.1557,384.8859 884.5669,409.4746 861.3787,425.9587 " fill="none" id="xlsxwriter-pyexcel-xlsxw" style="stroke: #A80036; stroke-width: 1.0;"/><!--link pyexcel-ods3 to ezodf--><path d="M804.4357,671.0265 C805.1403,700.1809 806.5337,757.8327 807.3541,791.7745 " fill="none" id="pyexcel-ods3-ezodf" style="stroke: #A80036; stroke-width: 1.0;"/><!--link pyexcel-ods to odfpy--><path d="M658.6732,671.0265 C658.1448,700.1809 657.0997,757.8327 656.4844,791.7745 " fill="none" id="pyexcel-ods-odfpy" style="stroke: #A80036; stroke-width: 1.0;"/><!--link lxml to pyexcel-odsr--><path d="M1214.1373,569.2022 C1208.3538,571.1828 1202.5675,573.1435 1197,575 C1132.2105,596.6045 1057.3524,620.2459 1007.6032,635.7725 " fill="none" id="lxml-pyexcel-odsr" style="stroke: #A80036; stroke-width: 1.0;"/><!--link pyexcel-xlsxr to lxml--><path d="M1268.8709,462.2025 C1269.6599,478.6929 1270.8324,503.1973 1271.7266,521.8852 " fill="none" id="pyexcel-xlsxr-lxml" style="stroke: #A80036; stroke-width: 1.0;"/><!--link sphinxcontrib-excel to pyexcel-handsontable--><path d="M174.5008,120.9336 C196.978,109.8672 227.6452,96.7571 256.5,91 C303.1364,81.6951 316.7711,82.1717 363.5,91 C392.0118,96.3866 422.3908,108.2464 445.7634,118.8289 " fill="none" id="sphinxcontrib-excel-pyexcel-handsontable" style="stroke: #A80036; stroke-width: 1.0;"/><polygon fill="#A80036" points="450.3419,120.926,443.8253,113.5413,445.7961,118.8437,440.4937,120.8146,450.3419,120.926" style="stroke: #A80036; stroke-width: 1.0;"/><!--link libxlsxwpy to pyexcel-libxlsxw--><path d="M677.2155,366.1401 C675.9598,384.8859 674.3127,409.4746 673.2085,425.9587 " fill="none" id="libxlsxwpy-pyexcel-libxlsxw" style="stroke: #A80036; stroke-width: 1.0;"/><!--link libxlsxwpy to libxlsx--><path d="M737.7813,339.5 C749.3122,339.5 760.8432,339.5 772.3741,339.5 " fill="none" id="libxlsxwpy-libxlsx" style="stroke: #A80036; stroke-width: 1.0;"/><!--
@startuml

package "pyexcel" {
[pyexcel public api]
[pyexcel internal api]
[pyexcel plugin interfaces]
folder "plugins" {
  [data source plugins]
  [data renderer plugins]
  [data parsing plugins]
 }
}

package "pyexcel-io" {
[pyexcel-io public api]
[pyexcel-io plugin interfaces]
folder "io plugins" {
  [csv, csvz, tsv, tsvz]
  [django, sqlalchemy]
 }
}

cloud "ods" {
[pyexcel-ods]
[pyexcel-ods3]
[pyexcel-odsr]
}

cloud "xls, xlsx" {
[pyexcel-xls]
[pyexcel-xlsx]
[pyexcel-xlsxw]
[pyexcel-libxlsxw]
[pyexcel-xlsxr]
}

[tabulate] <<dependency>>
[pygal] <<dependency>>
[handsontable] <<dependency>>
[xlrd] <<dependency>>
[xlwt] <<dependency>>
[openpyxl] <<dependency>>
[xlsxwriter] <<dependency>>
[ezodf] <<dependency>>
[odfpy] <<dependency>>
[lxml] <<dependency>>
[libxlsxwpy] <<dependency>>
[libxlsx] <<dependency>>

[pyexcel public api] -right-> [pyexcel internal api]
[pyexcel internal api] -right-> [pyexcel plugin interfaces]
[pyexcel plugin interfaces] .up.> [pyexcel-text]
[pyexcel plugin interfaces] .up.> [pyexcel-pygal]
[pyexcel plugin interfaces] .up.> [pyexcel-handsontable]
[pyexcel plugin interfaces] ..> [data source plugins]
[pyexcel plugin interfaces] ..> [data renderer plugins]
[pyexcel plugin interfaces] ..> [data parsing plugins]

[data renderer plugins]  -down-> [pyexcel-io public api]
[data parsing plugins] - -> [pyexcel-io public api]

[pyexcel-io public api] - -> [pyexcel-io plugin interfaces]
[pyexcel-io plugin interfaces] ..> [csv, csvz, tsv, tsvz]
[pyexcel-io plugin interfaces] ..> [django, sqlalchemy]
[pyexcel-io plugin interfaces] .up.> [pyexcel-xls]
[pyexcel-io plugin interfaces] .up.> [pyexcel-xlsxw]
[pyexcel-io plugin interfaces] .up.> [pyexcel-libxlsxw]
[pyexcel-io plugin interfaces] .up.> [pyexcel-xlsx]
[pyexcel-io plugin interfaces] .up.> [pyexcel-xlsxr]
[pyexcel-io plugin interfaces] .left.> [pyexcel-ods]
[pyexcel-io plugin interfaces] .right.> [pyexcel-ods3]
[pyexcel-io plugin interfaces] .right.> [pyexcel-odsr]


[pyexcel-text] -up- [tabulate]
[pyexcel-pygal] -up- [pygal]
[pyexcel-handsontable] -up- [handsontable]
[pyexcel-xls] -right- [xlrd]
[pyexcel-xls] -right- [xlwt]
[pyexcel-xlsx] -right- [openpyxl]
[pyexcel-xlsxw] -up- [xlsxwriter]
[pyexcel-ods3] - - - [ezodf]
[pyexcel-ods] - - - [odfpy]
[pyexcel-odsr] -up- [lxml]
[pyexcel-xlsxr] -right- [lxml]
[sphinxcontrib-excel] -right-> [pyexcel-handsontable]
[pyexcel-libxlsxw] -up- [libxlsxwpy]
[libxlsxwpy] -right- [libxlsx]

skinparam component{

backgroundColor<<dependency>> White

}

@enduml

PlantUML version 1.2017.13(Wed May 10 17:52:33 BST 2017)
(GPL source distribution)
Java Runtime: Java(TM) SE Runtime Environment
JVM: Java HotSpot(TM) 64-Bit Server VM
Java Version: 1.8.0_131-b11
Operating System: Mac OS X
OS Version: 10.14.6
Default Encoding: UTF-8
Language: en
Country: GB
--></g></svg>